<?xml version="1.0" encoding="UTF-8"?> <svg xmlns="http://www.w3.org/2000/svg" width="42" height="42" viewBox="0 0 42 42" fill="none"> <path d="M30.2186 8.65387C29.8992 9.68637 28.7224 11.4845 24.4458 11.9264C18.3405 12.5564 13.7139 14.8182 12.9352 17.5526C12.4408 19.2829 13.4974 21.2123 15.9889 23.1307C20.8649 26.8911 23.5161 30.6404 23.8639 34.2782C24.1352 37.1264 22.8795 39.0207 22.1074 39.8957C22.0395 39.9701 21.9477 40.0095 21.8536 40.0095C21.7749 40.0095 21.6961 39.9811 21.6305 39.9242C21.4905 39.8017 21.4774 39.5895 21.602 39.4495C22.302 38.6554 23.4396 36.9382 23.1924 34.3417C22.8664 30.9467 20.2327 27.2542 15.5755 23.6645C12.1302 21.0089 11.8852 18.7754 12.2855 17.3689C13.1539 14.3239 17.8986 11.9264 24.3758 11.257C28.2674 10.8545 29.3042 9.32762 29.5755 8.45481C29.8817 7.46387 29.5055 6.3045 28.6371 5.5695C27.8124 4.8695 26.7667 4.7295 25.8392 5.19106C25.4346 5.3945 25.0364 5.61106 24.6492 5.82106C23.1224 6.65231 21.8033 7.372 20.7314 6.86669C20.0249 6.53419 19.5524 5.69856 19.2855 4.31606C19.0974 3.33825 18.6883 2.72794 18.067 2.507C16.5249 1.95575 13.8583 3.767 12.9614 4.51075C12.817 4.62887 12.6049 4.60919 12.4867 4.467C12.3664 4.32481 12.3861 4.11262 12.5305 3.9945C12.6749 3.87419 16.0764 1.08075 18.2945 1.87262C19.1542 2.18106 19.712 2.95981 19.9483 4.18919C20.1714 5.34637 20.5214 6.02231 21.018 6.25637C21.7792 6.61512 23.0174 5.94356 24.3277 5.23044C24.7171 5.01606 25.1217 4.79731 25.5396 4.5895C26.7142 4.00106 28.0355 4.17606 29.0746 5.05544C30.1617 5.97637 30.6102 7.3895 30.2186 8.65387ZM33.1564 4.71637C32.2792 3.13262 30.5205 1.7195 28.5758 2.12637C27.6133 2.32762 26.7142 2.84387 25.8458 3.34481C25.5024 3.54169 25.1458 3.74731 24.7914 3.92887C24.2664 4.20012 23.6145 4.53481 22.9211 4.642C21.9849 4.78419 20.7752 4.43856 20.2961 1.95794C20.1605 1.247 19.8433 0.719811 19.3577 0.391687C18.8042 0.0219992 18.0474 -0.0830011 17.168 0.0898115C15.5711 0.404812 13.9939 1.15294 12.7295 2.19856C11.0605 3.57887 10.1505 4.80169 11.1349 6.29356C11.5527 6.92575 12.3577 7.6695 13.1364 7.80731C13.5477 7.88169 13.9524 7.74169 14.3811 7.59512C14.742 7.47262 15.1161 7.34575 15.5295 7.32606C16.2339 7.29981 16.7371 7.60387 16.923 8.17481C17.5202 10.0057 15.3217 10.9989 13.9545 11.4845C12.093 12.1429 9.90986 12.0095 8.92986 14.0482C6.76861 18.5457 9.72611 22.1201 13.5652 24.2267C15.9671 25.5457 20.4339 28.0001 21.6939 31.7932C22.7439 34.9607 21.7508 39.0973 18.5505 40.5914C17.7936 40.9436 18.1195 42.0811 18.9486 41.987C22.2714 41.6042 26.0952 39.8389 26.4124 36.6932C26.8608 32.2417 23.3717 27.9279 20.2152 25.2264C18.8305 24.0386 15.5886 21.2604 16.7283 18.4779C17.4064 16.8198 19.3008 15.9842 20.8758 15.4417C22.4071 14.9145 24.0083 14.6454 25.5571 14.3873C26.1389 14.2889 26.7208 14.1926 27.3027 14.0811C29.8642 13.5911 31.6842 12.6001 32.708 11.1389C34.0271 9.25762 34.213 6.61731 33.1564 4.71637Z" fill="#F1A33B"></path> <path d="M29.0153 18.8149C28.8316 18.7558 24.4566 17.3974 22 18.7667C21.2191 19.202 20.7116 19.8649 20.4928 20.7377C20.1275 22.1967 21.0484 23.2008 22.3238 24.5877C23.6734 26.0577 25.5241 28.0724 26.9131 31.7124C26.9634 31.8458 27.0925 31.9289 27.2281 31.9289C27.2675 31.9289 27.3069 31.9224 27.3484 31.907C27.5213 31.8414 27.6088 31.6467 27.5431 31.4717C26.1081 27.7114 24.2094 25.6442 22.8225 24.1327C21.6041 22.8092 20.8713 22.0086 21.1469 20.8995C21.3219 20.2061 21.7069 19.7008 22.3281 19.3552C24.5288 18.1258 28.7681 19.4427 28.8119 19.4558C28.9891 19.5127 29.1794 19.4142 29.2341 19.237C29.2909 19.0599 29.1925 18.8695 29.0153 18.8149Z" fill="#F1A33B"></path> </svg> 