<?xml version="1.0" encoding="UTF-8"?> <svg xmlns="http://www.w3.org/2000/svg" width="168" height="168" viewBox="0 0 168 168" fill="none"> <path d="M40.782 34.6417C37.107 34.6417 34.1145 37.643 34.1145 41.3267V151.48C34.1145 155.164 37.107 158.165 40.782 158.165H126.742C130.417 158.165 133.401 155.164 133.401 151.48V41.3267C133.401 37.643 130.417 34.6417 126.742 34.6417H40.782ZM126.742 167.983H40.782C31.717 167.983 24.332 160.58 24.332 151.48V41.3267C24.332 32.2267 31.717 24.8242 40.782 24.8242H126.742C135.807 24.8242 143.183 32.2267 143.183 41.3267V151.48C143.183 160.58 135.807 167.983 126.742 167.983Z" fill="#25A46D"></path> <path d="M108.133 45.2722H60.8477V18.9609H108.133V45.2722Z" fill="#25A46D"></path> <path d="M84.4891 9.83508C82.0216 9.83508 80.0091 11.8476 80.0091 14.3326C80.0091 16.8088 82.0216 18.8301 84.4891 18.8301C86.9653 18.8301 88.9778 16.8088 88.9778 14.3326C88.9778 11.8476 86.9653 9.83508 84.4891 9.83508ZM84.4891 28.6476C76.6228 28.6476 70.2266 22.2251 70.2266 14.3326C70.2266 6.44008 76.6228 0.0175781 84.4891 0.0175781C92.3553 0.0175781 98.7603 6.44008 98.7603 14.3326C98.7603 22.2251 92.3553 28.6476 84.4891 28.6476Z" fill="#25A46D"></path> <path d="M121.736 67.6373H45.7773V58.3623H121.736V67.6373Z" fill="#25A46D"></path> <path d="M50.6431 97.8074L44.2031 91.3411L46.5044 89.0311L50.1706 92.7061L58.9556 79.8174L61.6419 81.6636L50.6431 97.8074Z" fill="#25A46D"></path> <path d="M116.05 89.6348H66.7695V86.3623H116.05V89.6348Z" fill="#25A46D"></path> <path d="M50.6431 118.335L44.2031 111.868L46.5044 109.558L50.1706 113.233L58.9556 100.345L61.6419 102.191L50.6431 118.335Z" fill="#25A46D"></path> <path d="M116.05 110.162H66.7695V106.898H116.05V110.162Z" fill="#25A46D"></path> <path d="M50.6431 138.863L44.2031 132.397L46.5044 130.087L50.1706 133.762L58.9556 120.873L61.6419 122.719L50.6431 138.863Z" fill="#25A46D"></path> <path d="M116.05 130.69H66.7695V127.418H116.05V130.69Z" fill="#25A46D"></path> </svg> 