<?xml version="1.0" encoding="UTF-8"?> <svg xmlns="http://www.w3.org/2000/svg" width="506" height="506" viewBox="0 0 506 506" fill="none"> <g filter="url(#filter0_d)"> <circle cx="253.002" cy="235.457" r="200.37" fill="white"></circle> </g> <path d="M405.283 237.46C405.283 242.376 405.048 247.291 404.563 252.191C404.077 257.09 403.357 261.943 402.402 266.78C401.432 271.602 400.242 276.376 398.818 281.088C397.378 285.8 395.734 290.418 393.84 294.973C391.961 299.512 389.864 303.958 387.531 308.294C385.214 312.646 382.694 316.857 379.955 320.943C377.215 325.044 374.288 328.989 371.173 332.793C368.042 336.596 364.755 340.244 361.264 343.719C357.789 347.21 354.142 350.497 350.338 353.628C346.534 356.743 342.589 359.67 338.488 362.41C334.402 365.149 330.191 367.669 325.839 369.986C321.503 372.319 317.057 374.416 312.518 376.295C307.963 378.189 303.345 379.832 298.633 381.273C293.921 382.697 289.147 383.887 284.325 384.857C279.488 385.812 274.635 386.532 269.736 387.018C264.836 387.503 259.921 387.738 255.006 387.738C250.09 387.738 245.175 387.503 240.275 387.018C235.376 386.532 230.523 385.812 225.686 384.857C220.864 383.887 216.09 382.697 211.378 381.273C206.666 379.832 202.048 378.189 197.493 376.295C192.954 374.416 188.508 372.319 184.172 369.986C179.82 367.669 175.609 365.149 171.523 362.41C167.422 359.67 163.477 356.743 159.673 353.628C155.87 350.497 152.222 347.21 148.747 343.719C145.256 340.244 141.969 336.596 138.838 332.793C135.723 328.989 132.796 325.044 130.056 320.943C127.317 316.857 124.797 312.646 122.48 308.294C120.147 303.958 118.05 299.512 116.171 294.973C114.277 290.418 112.634 285.8 111.193 281.088C109.769 276.376 108.579 271.602 107.609 266.78C106.654 261.943 105.934 257.09 105.448 252.191C104.963 247.291 104.728 242.376 104.728 237.46C104.728 232.545 104.963 227.63 105.448 222.73C105.934 217.831 106.654 212.978 107.609 208.141C108.579 203.319 109.769 198.545 111.193 193.833C112.634 189.121 114.277 184.503 116.171 179.948C118.05 175.409 120.147 170.963 122.48 166.627C124.797 162.275 127.317 158.064 130.056 153.978C132.796 149.877 135.723 145.932 138.838 142.128C141.969 138.324 145.256 134.677 148.747 131.202C152.222 127.711 155.87 124.424 159.673 121.293C163.477 118.178 167.422 115.251 171.523 112.511C175.609 109.772 179.82 107.252 184.172 104.935C188.508 102.602 192.954 100.505 197.493 98.6263C202.048 96.7321 206.666 95.0885 211.378 93.6483C216.09 92.2238 220.864 91.0341 225.686 90.0636C230.523 89.1087 235.376 88.3886 240.275 87.9034C245.175 87.4181 250.09 87.1833 255.006 87.1833C259.921 87.1833 264.836 87.4181 269.736 87.9034C274.635 88.3886 279.488 89.1087 284.325 90.0636C289.147 91.0341 293.921 92.2238 298.633 93.6483C303.345 95.0885 307.963 96.7321 312.518 98.6263C317.057 100.505 321.503 102.602 325.839 104.935C330.191 107.252 334.402 109.772 338.488 112.511C342.589 115.251 346.534 118.178 350.338 121.293C354.142 124.424 357.789 127.711 361.264 131.202C364.755 134.677 368.042 138.324 371.173 142.128C374.288 145.932 377.215 149.877 379.955 153.978C382.694 158.064 385.214 162.275 387.531 166.627C389.864 170.963 391.961 175.409 393.84 179.948C395.734 184.503 397.378 189.121 398.818 193.833C400.242 198.545 401.432 203.319 402.402 208.141C403.357 212.978 404.077 217.831 404.563 222.73C405.048 227.63 405.283 232.545 405.283 237.46Z" fill="#25A46D"></path> <path d="M224.371 319.784L154.022 248.95C150.672 245.6 150.672 240.325 154.022 236.975L177.957 213.056C181.307 209.706 186.567 209.706 189.917 213.056L229.161 252.3L318.654 155.136C322.004 151.786 327.279 151.317 330.629 154.667L355.034 177.161C358.384 180.511 358.853 185.771 355.503 189.121L236.816 318.813C233.466 323.134 227.721 323.134 224.371 319.784Z" fill="white"></path> <defs> <filter id="filter0_d" x="0.00182679" y="0.000238859" width="506" height="506" filterUnits="userSpaceOnUse" color-interpolation-filters="sRGB"> <feFlood flood-opacity="0" result="BackgroundImageFix"></feFlood> <feColorMatrix in="SourceAlpha" type="matrix" values="0 0 0 0 0 0 0 0 0 0 0 0 0 0 0 0 0 0 127 0" result="hardAlpha"></feColorMatrix> <feOffset dy="4.37778"></feOffset> <feGaussianBlur stdDeviation="6.56667"></feGaussianBlur> <feColorMatrix type="matrix" values="0 0 0 0 0 0 0 0 0 0 0 0 0 0 0 0 0 0 0.2 0"></feColorMatrix> <feBlend mode="normal" in2="BackgroundImageFix" result="effect1_dropShadow"></feBlend> <feBlend mode="normal" in="SourceGraphic" in2="effect1_dropShadow" result="shape"></feBlend> </filter> </defs> </svg> 