<?xml version="1.0" encoding="UTF-8"?> <svg xmlns="http://www.w3.org/2000/svg" width="128" height="127" viewBox="0 0 128 127" fill="none"> <g filter="url(#filter0_d)"> <circle cx="64" cy="59" r="50" fill="white"></circle> </g> <g clip-path="url(#clip0)"> <g clip-path="url(#clip1)"> <path d="M91.1736 32.8261C105.788 47.4406 105.711 71.1673 91.0161 85.8619C76.3243 100.548 52.5976 100.631 37.9831 86.0166C23.3797 71.4131 23.4488 47.6726 38.1378 32.9835C52.8324 18.289 76.5701 18.2227 91.1736 32.8261Z" fill="#F1A33B"></path> <path d="M47.7168 70.0127L75.9293 41.8002L82.5335 48.4045L54.3211 76.617L47.7168 70.0127Z" fill="white"></path> <path d="M47.7803 48.5095L54.4315 41.8583L82.4727 69.8995L75.8215 76.5507L47.7803 48.5095Z" fill="white"></path> </g> </g> <defs> <filter id="filter0_d" x="0.866667" y="0.244444" width="126.267" height="126.267" filterUnits="userSpaceOnUse" color-interpolation-filters="sRGB"> <feFlood flood-opacity="0" result="BackgroundImageFix"></feFlood> <feColorMatrix in="SourceAlpha" type="matrix" values="0 0 0 0 0 0 0 0 0 0 0 0 0 0 0 0 0 0 127 0" result="hardAlpha"></feColorMatrix> <feOffset dy="4.37778"></feOffset> <feGaussianBlur stdDeviation="6.56667"></feGaussianBlur> <feColorMatrix type="matrix" values="0 0 0 0 0 0 0 0 0 0 0 0 0 0 0 0 0 0 0.2 0"></feColorMatrix> <feBlend mode="normal" in2="BackgroundImageFix" result="effect1_dropShadow"></feBlend> <feBlend mode="normal" in="SourceGraphic" in2="effect1_dropShadow" result="shape"></feBlend> </filter> <clipPath id="clip0"> <rect width="75" height="75" fill="white" transform="translate(27 22)"></rect> </clipPath> <clipPath id="clip1"> <rect width="75" height="75" fill="white" transform="translate(11.4668 59.5) rotate(-45)"></rect> </clipPath> </defs> </svg> 