<?xml version="1.0" encoding="UTF-8"?> <svg xmlns="http://www.w3.org/2000/svg" width="42" height="42" viewBox="0 0 42 42" fill="none"> <g clip-path="url(#clip0)"> <path d="M39.4998 22.3277C39.2767 19.1405 37.0476 15.2774 33.2851 15.1134C33.0467 6.64117 23.5245 4.18242 17.5417 8.26429C11.6945 11.9984 10.1436 19.0312 10.2398 25.5959C9.29918 23.183 5.82543 20.7484 3.08012 22.343C3.08012 22.3102 2.95543 22.2774 2.93137 22.483C2.94449 22.4612 2.39543 23.1109 2.97949 23.054C3.55043 25.8934 6.94762 28.7196 10.2398 27.779C10.2704 32.1759 10.2398 36.7412 10.3098 41.2496C9.22481 41.4859 5.72262 41.1009 5.23262 42.0634C9.14605 42.3302 13.2411 41.803 17.4061 42.6693C20.4226 41.4159 13.1601 41.1293 11.5479 41.2234C11.5939 39.7534 11.5479 38.0602 11.5479 36.2577C15.5139 36.5312 23.0214 33.4052 21.3698 28.3696C17.5242 26.3549 12.7751 29.4721 11.5414 33.4884C8.56199 -0.277894 33.0073 5.13398 32.7842 15.1112C27.3395 15.5334 26.7095 22.378 28.0329 26.7421C28.2276 27.2452 28.8751 26.5999 29.4789 26.1384C29.7414 26.9127 30.1898 27.558 30.8198 28.0765C30.8548 28.619 32.327 27.348 33.1867 26.0093C33.5411 26.333 33.6351 26.4293 35.0176 27.5405C35.0307 28.713 37.1045 26.1209 37.0914 24.6049C38.9551 25.9087 39.9395 26.2959 39.4998 22.3277ZM9.89199 27.2146C7.17293 27.838 4.18043 25.7162 3.25949 22.7893C5.65699 21.4593 9.00606 23.6359 9.80012 26.3659C9.68856 26.2346 9.57481 26.1034 9.45887 25.983C8.71074 25.2327 7.83355 24.6924 6.82949 24.3599C6.56918 24.2724 5.95887 24.058 5.85168 24.4759C5.84512 24.5043 5.85387 24.5218 5.88231 24.5284C5.91074 24.5371 5.92824 24.5262 5.93481 24.4977C6.05293 24.1302 7.03949 24.6202 7.24949 24.7165C7.64981 24.8959 8.02824 25.1146 8.38699 25.3705C8.74356 25.6287 9.07387 25.9196 9.37356 26.2434C9.53106 26.4118 9.67981 26.589 9.81762 26.7727C9.85262 26.823 9.88762 26.8777 9.92481 26.9324C9.93793 27.0199 9.94887 27.1052 9.95543 27.1927L9.89199 27.2146ZM21.1117 28.7699C21.0417 33.5934 15.9536 35.6759 11.5567 35.7262C11.5567 35.6693 11.5567 35.6124 11.5567 35.5555C11.6354 35.503 11.712 35.4418 11.7907 35.3849C12.0161 35.2252 12.237 35.059 12.4557 34.8884C12.8932 34.5471 13.3176 34.1927 13.7289 33.8318C14.5689 33.088 15.3411 32.2809 16.0476 31.4102C16.1023 31.3424 16.0104 31.2396 15.9492 31.3118C15.2207 32.1277 14.442 32.8955 13.6129 33.6109C13.1929 33.9674 12.7576 34.3109 12.3092 34.6368C12.0839 34.8009 11.8586 34.9562 11.6245 35.1115L11.5676 35.1487C11.6376 34.5559 11.887 33.9499 12.1976 33.1624C13.4576 29.914 17.3732 27.0024 21.1117 28.7699ZM28.3698 26.3943C27.4248 22.1134 27.9061 15.5377 33.4295 15.704C33.5236 19.624 31.6817 23.7452 28.3698 26.3943ZM31.9223 26.7355C31.627 27.0965 31.3098 27.4399 30.9751 27.7637C30.4764 27.184 30.0957 26.5365 29.8311 25.819C31.3186 24.3927 32.4254 22.7193 33.1539 20.7921C33.3901 21.0918 33.6767 21.514 34.2279 22.133C33.8845 23.4521 33.0817 25.3968 31.9223 26.7334V26.7355ZM36.5817 24.3009C36.4307 25.4143 36.3039 26.1515 35.2211 27.3065C34.8076 26.9149 34.1776 26.1909 33.4623 25.5762C34.077 24.4343 34.1557 24.3687 34.7201 22.6646C35.2976 23.2487 35.9211 23.778 36.5861 24.2571C36.5839 24.2724 36.5817 24.2855 36.5817 24.2987V24.3009ZM38.9398 25.2196C38.5964 24.9899 38.4586 24.9593 37.542 24.3643C36.0545 23.3099 34.5845 22.004 33.3879 20.1205C33.8364 18.7162 34.0507 17.2768 34.0311 15.8024C38.0495 16.789 39.2745 21.2734 38.9398 25.2196Z" fill="#F1A33B"></path> </g> <defs> <clipPath id="clip0"> <rect width="42" height="42" fill="white"></rect> </clipPath> </defs> </svg> 