<?xml version="1.0" encoding="UTF-8"?> <svg xmlns="http://www.w3.org/2000/svg" width="42" height="42" viewBox="0 0 42 42" fill="none"> <g clip-path="url(#clip0)"> <path d="M16.5088 3.03191C11.4863 3.03191 7.40004 7.2341 7.40004 12.3988C7.40004 13.1885 7.49629 13.976 7.6866 14.735L7.88348 15.5247L7.07191 15.5597C3.84754 15.7041 1.32098 17.4432 1.32098 19.5191C1.32098 21.7088 4.09254 23.4894 7.49848 23.4894H34.4857C37.8916 23.4894 40.6632 21.7088 40.6632 19.5191C40.6632 17.4475 38.0447 15.6691 34.8269 15.5554L34.2516 15.5357L34.1904 14.9625C33.8579 11.8738 31.2525 9.5441 28.131 9.5441C27.4091 9.5441 26.7025 9.66879 26.031 9.91379L25.3813 10.1522L25.1713 9.48941C23.9441 5.62848 20.4638 3.03191 16.5088 3.03191ZM34.4857 24.8172H7.49848C5.53848 24.8172 3.69004 24.2944 2.28785 23.345C0.806914 22.3432 -0.00683594 20.9847 -0.00683594 19.5191C-0.00683594 18.1169 0.750039 16.7978 2.12379 15.8091C3.23723 15.0063 4.67441 14.4813 6.23629 14.2954C6.12691 13.6719 6.07223 13.0354 6.07223 12.3988C6.07223 6.50129 10.7535 1.7041 16.5088 1.7041C20.8269 1.7041 24.6507 4.39473 26.2169 8.46348C26.8382 8.29941 27.4791 8.21629 28.131 8.21629C31.7425 8.21629 34.7875 10.7779 35.4285 14.2625C39.1516 14.5885 41.991 16.8263 41.991 19.5191C41.991 20.9847 41.175 22.3432 39.6941 23.345C38.2941 24.2944 36.4435 24.8172 34.4857 24.8172Z" fill="#F1A33B"></path> <path d="M6.25166 28.698C5.68072 29.7239 4.98509 31.2289 5.05947 32.2045L5.06384 32.2417L5.05728 32.3205C5.05728 32.8608 5.59978 33.2983 6.26478 33.2983C6.92541 33.2983 7.46572 32.8673 7.47228 32.3358C7.47228 32.3226 7.47009 32.3117 7.47009 32.3008V32.2658L7.47228 32.233C7.50947 31.6905 7.31259 30.6492 6.25166 28.698ZM6.26478 34.4948C4.94134 34.4948 3.86291 33.5214 3.86291 32.3226C3.86291 32.2986 3.86291 32.2745 3.86509 32.2526C3.74478 30.2948 5.56041 27.4992 5.76822 27.1842L6.29541 26.3923L6.78103 27.2105C8.11541 29.4548 8.73228 31.113 8.66666 32.2745C8.66884 32.2898 8.66884 32.3051 8.66884 32.3226C8.66884 33.5214 7.59041 34.4948 6.26478 34.4948Z" fill="#F1A33B"></path> <path d="M11.7988 34.5078C11.2256 35.5337 10.53 37.0409 10.6044 38.0165L10.6088 38.0537L10.6044 38.1303C10.6022 38.6728 11.1447 39.1103 11.8097 39.1103C12.4703 39.1103 13.0106 38.6793 13.0172 38.1478C13.0172 38.1325 13.0172 38.1215 13.015 38.1106V38.0778L13.0172 38.045C13.0544 37.5025 12.8575 36.459 11.7988 34.5078ZM11.8097 40.3068C10.4863 40.3068 9.40783 39.3312 9.40783 38.1347C9.40783 38.1106 9.40783 38.0865 9.41002 38.0625C9.2897 36.1068 11.1053 33.3112 11.3153 32.9962L11.8403 32.2043L12.326 33.0225C13.6581 35.2668 14.2772 36.925 14.2116 38.0865C14.2116 38.1018 14.2138 38.1172 14.2138 38.1347C14.2138 39.3312 13.1353 40.3068 11.8097 40.3068Z" fill="#F1A33B"></path> <path d="M17.0115 28.698C16.4405 29.7239 15.7427 31.2289 15.8193 32.2045L15.8215 32.2417L15.8171 32.3205C15.8171 32.8608 16.3574 33.2983 17.0246 33.2983C17.6852 33.2983 18.2233 32.8673 18.2321 32.3358C18.2299 32.3226 18.2299 32.3117 18.2299 32.3008L18.2277 32.2658L18.2299 32.233C18.2693 31.6905 18.0724 30.6492 17.0115 28.698ZM17.0246 34.4948C15.699 34.4948 14.6205 33.5214 14.6205 32.3226C14.6205 32.2986 14.6227 32.2745 14.6227 32.2526C14.5046 30.2948 16.318 27.4992 16.528 27.1842L17.0552 26.3923L17.5386 27.2105C18.873 29.4548 19.4899 31.113 19.4265 32.2745C19.4265 32.2898 19.4265 32.3051 19.4265 32.3226C19.4265 33.5214 18.348 34.4948 17.0246 34.4948Z" fill="#F1A33B"></path> <path d="M22.5574 34.5078C21.9842 35.5337 21.2886 37.0409 21.3652 38.0165L21.3674 38.0537L21.363 38.1303C21.363 38.6728 21.9033 39.1103 22.5705 39.1103C23.2311 39.1103 23.7692 38.6793 23.778 38.1478C23.7758 38.1325 23.7758 38.1215 23.7758 38.1106L23.7736 38.0778L23.7758 38.045C23.8152 37.5025 23.6183 36.459 22.5574 34.5078ZM22.5705 40.3068C21.2449 40.3068 20.1664 39.3312 20.1664 38.1347C20.1664 38.1106 20.1686 38.0865 20.1686 38.0625C20.0505 36.1068 21.8661 33.3112 22.0739 32.9962L22.5989 32.2043L23.0845 33.0225C24.4189 35.2668 25.0358 36.925 24.9702 38.0865C24.9724 38.1018 24.9724 38.1172 24.9724 38.1347C24.9724 39.3312 23.8939 40.3068 22.5705 40.3068Z" fill="#F1A33B"></path> <path d="M27.6386 28.698C27.0655 29.7239 26.3699 31.2289 26.4442 32.2045L26.4486 32.2417L26.4442 32.3205C26.442 32.8608 26.9845 33.2983 27.6495 33.2983C28.3102 33.2983 28.8505 32.8673 28.857 32.3358C28.857 32.3226 28.857 32.3117 28.857 32.3008L28.8549 32.2658L28.857 32.233C28.8964 31.6905 28.6974 30.6492 27.6386 28.698ZM27.6495 34.4948C26.3261 34.4948 25.2477 33.5214 25.2477 32.3226C25.2477 32.2986 25.2477 32.2745 25.2499 32.2526C25.1295 30.2948 26.9452 27.4992 27.1552 27.1842L27.6802 26.3923L28.1658 27.2105C29.5002 29.4548 30.117 31.113 30.0514 32.2745C30.0536 32.2898 30.0536 32.3051 30.0536 32.3226C30.0536 33.5214 28.9752 34.4948 27.6495 34.4948Z" fill="#F1A33B"></path> <path d="M33.1835 34.5078C32.6104 35.5337 31.9148 37.0409 31.9892 38.0165L31.9935 38.0537L31.9892 38.1303C31.987 38.6728 32.5295 39.1103 33.1945 39.1103C33.8551 39.1103 34.3954 38.6793 34.402 38.1478C34.402 38.1325 34.402 38.1215 34.3998 38.1106V38.0778L34.402 38.045C34.4392 37.5025 34.2423 36.459 33.1835 34.5078ZM33.1945 40.3068C31.871 40.3068 30.7926 39.3312 30.7926 38.1347C30.7926 38.1106 30.7926 38.0865 30.7948 38.0625C30.6745 36.1068 32.4901 33.3112 32.7001 32.9962L33.2251 32.2043L33.7107 33.0225C35.0429 35.2668 35.662 36.925 35.5963 38.0865C35.5985 38.1018 35.5985 38.1172 35.5985 38.1347C35.5985 39.3312 34.5201 40.3068 33.1945 40.3068Z" fill="#F1A33B"></path> </g> <defs> <clipPath id="clip0"> <rect width="42" height="42" fill="white"></rect> </clipPath> </defs> </svg> 