<?xml version="1.0" encoding="UTF-8"?> <svg xmlns="http://www.w3.org/2000/svg" width="42" height="42" viewBox="0 0 42 42" fill="none"> <path d="M3.39047 26.3615L10.9877 18.7621C11.1014 18.644 11.237 18.5674 11.3967 18.5258C11.5542 18.4865 11.7117 18.4908 11.867 18.539C12.018 18.5849 12.1427 18.6724 12.2433 18.7949C12.3417 18.9196 12.3986 19.0596 12.4117 19.2193C12.6173 20.4049 12.9805 21.5424 13.5033 22.6274C14.0261 23.7146 14.6867 24.7077 15.4873 25.609L10.6355 30.5068C10.548 30.5812 10.4802 30.6708 10.432 30.7758C10.3839 30.8808 10.3598 30.9902 10.3598 31.1062C10.3598 31.2199 10.3839 31.3293 10.432 31.4343C10.4802 31.5393 10.548 31.629 10.6355 31.7033C10.712 31.7799 10.8017 31.8368 10.9023 31.8762C11.003 31.9177 11.1058 31.9374 11.2152 31.9374C11.3223 31.9374 11.4252 31.9177 11.5258 31.8762C11.6264 31.8368 11.7161 31.7799 11.7927 31.7033L16.7277 26.8077C17.6158 27.6215 18.598 28.2887 19.6808 28.8115C20.7614 29.3343 21.8967 29.693 23.0823 29.8833C23.242 29.9052 23.3864 29.9643 23.5133 30.0627C23.6423 30.159 23.7364 30.2837 23.7998 30.4302C23.8852 30.7649 23.8108 31.058 23.5745 31.3096L15.9795 38.909C15.1483 39.7468 14.1858 40.3877 13.0942 40.8384C12.0027 41.2868 10.8673 41.5077 9.68609 41.5012C8.50484 41.5077 7.36953 41.2868 6.27797 40.8362C5.18641 40.3855 4.22391 39.7424 3.39047 38.9068C2.98359 38.4912 2.62047 38.0405 2.30109 37.5571C1.98172 37.0715 1.71266 36.5596 1.49172 36.0215C1.27297 35.4833 1.10672 34.9299 0.995155 34.359C0.883593 33.7902 0.826717 33.2149 0.826717 32.633C0.826717 32.0533 0.883593 31.4758 0.995155 30.9071C1.10672 30.3362 1.27297 29.7827 1.49172 29.2446C1.71266 28.7065 1.98172 28.1968 2.30109 27.7112C2.62047 27.2255 2.98359 26.7749 3.39047 26.3615Z" fill="#F1A33B"></path> <path d="M15.487 25.609L30.7361 10.4059L32.2958 1.13524C32.333 0.973364 32.4095 0.831177 32.5233 0.708677C32.637 0.586177 32.7748 0.503052 32.9367 0.454927C33.2605 0.380552 33.547 0.454927 33.7964 0.675864L41.6255 8.53993C41.7458 8.6493 41.8267 8.78055 41.8683 8.93805C41.9098 9.09336 41.9055 9.24868 41.8552 9.40399C41.737 9.71024 41.5205 9.9093 41.2055 10.0012L31.9348 11.5609L16.7295 26.8077C16.4955 26.6502 16.2855 26.4621 16.1017 26.2456C15.8742 26.0552 15.6948 25.8037 15.487 25.609ZM39.2695 8.58586L33.7505 3.02743L32.5473 9.74524L39.2695 8.58586Z" fill="#F1A33B"></path> </svg> 