<?xml version="1.0" encoding="UTF-8"?> <svg xmlns="http://www.w3.org/2000/svg" width="42" height="42" viewBox="0 0 42 42" fill="none"> <g clip-path="url(#clip0)"> <path d="M21.0963 33.5058C21.0963 34.2933 20.4291 34.9342 19.6087 34.9342H1.4875C0.667187 34.9342 0 34.2933 0 33.5058C0 32.7511 0.610313 32.1321 1.3825 32.0817C1.37813 32.0489 1.37156 32.0183 1.37156 31.9855V30.9027C1.37156 30.5221 1.69313 30.2136 2.08687 30.2136H19.0094C19.4031 30.2136 19.7247 30.5221 19.7247 30.9027V31.9855C19.7247 32.0183 19.7181 32.0489 19.7138 32.0817C20.4859 32.1321 21.0963 32.7511 21.0963 33.5058Z" fill="#F1A33B"></path> <path d="M14.9255 10.2352L24.568 15.9512C25.1061 16.2552 25.7995 16.0824 26.1167 15.5662L26.6942 14.6255C27.0114 14.1093 26.832 13.4443 26.2961 13.1402L16.6536 7.4243C16.1155 7.11805 15.4242 7.29086 15.107 7.80711L14.5273 8.74992C14.2101 9.26399 14.3873 9.92899 14.9255 10.2352ZM7.51201 22.2227L17.1545 27.9387C17.6926 28.2449 18.3839 28.0721 18.7011 27.5559L19.2808 26.6152C19.598 26.099 19.4208 25.434 18.8826 25.1299L9.24014 19.414C8.70201 19.1077 8.00858 19.2805 7.69139 19.7968L7.11389 20.7396C6.7967 21.2537 6.97608 21.9187 7.51201 22.2227ZM41.5583 30.0824C40.972 29.0718 40.0795 28.3718 39.0164 27.8643C36.153 26.5037 24.883 20.278 23.728 20.1184C23.5245 20.0899 23.4042 20.1293 23.297 20.3109C22.9361 20.9212 22.562 21.5227 22.1748 22.1177C22.0611 22.2971 22.0808 22.4174 22.2055 22.5749C22.7939 23.3296 33.2917 30.8459 36.0698 32.7074C36.8464 33.2281 37.7017 33.5781 38.6423 33.7421C38.9398 33.7487 39.2417 33.7727 39.5392 33.7596C40.727 33.7137 41.5998 33.1362 41.9039 32.1737C42.138 31.4299 41.9367 30.7343 41.5583 30.0824ZM19.3026 24.1434C16.3583 22.4677 12.867 20.2277 9.92483 18.5521C11.4561 16.078 12.9589 13.6477 14.4858 11.178C17.4192 12.8471 20.9083 15.0871 23.8636 16.7737C22.3433 19.2302 20.8317 21.6737 19.3026 24.1434Z" fill="#F1A33B"></path> </g> <defs> <clipPath id="clip0"> <rect width="42" height="42" fill="white"></rect> </clipPath> </defs> </svg> 