<?xml version="1.0" encoding="UTF-8"?> <svg xmlns="http://www.w3.org/2000/svg" width="168" height="168" viewBox="0 0 168 168" fill="none"> <path d="M143.946 103.757C147.788 94.605 149.739 84.9013 149.739 74.865C149.739 54.8713 141.951 36.0675 127.811 21.9275C113.662 7.7875 94.8675 0 74.865 0C54.8713 0 36.0675 7.7875 21.9275 21.9275C7.7875 36.0675 0 54.8713 0 74.865C0 94.8675 7.7875 113.662 21.9275 127.811C36.0675 141.951 54.8713 149.739 74.865 149.739C84.9013 149.739 94.605 147.788 103.757 143.946C107.555 157.798 120.26 168 135.292 168C153.326 168 168 153.326 168 135.292C168 120.26 157.798 107.555 143.946 103.757ZM74.865 144.804C36.3037 144.804 4.935 113.426 4.935 74.865C4.935 36.3037 36.3037 4.935 74.865 4.935C113.426 4.935 144.804 36.3037 144.804 74.865C144.804 84.595 142.853 93.975 138.994 102.804C137.777 102.664 136.544 102.594 135.292 102.594C117.259 102.594 102.594 117.259 102.594 135.292C102.594 136.544 102.664 137.777 102.804 138.994C93.9837 142.853 84.595 144.804 74.865 144.804ZM135.292 163.065C119.98 163.065 107.52 150.605 107.52 135.292C107.52 119.98 119.98 107.52 135.292 107.52C150.605 107.52 163.065 119.98 163.065 135.292C163.065 150.605 150.605 163.065 135.292 163.065Z" fill="#25A46D"></path> <path d="M151.181 126.814C151.181 124.836 150.411 122.972 149.011 121.581C147.611 120.181 145.756 119.411 143.779 119.411C141.801 119.411 139.946 120.181 138.555 121.581L135.291 124.836L132.036 121.581C130.645 120.181 128.781 119.411 126.813 119.411C124.835 119.411 122.971 120.181 121.58 121.581C120.18 122.972 119.41 124.836 119.41 126.814C119.41 128.782 120.18 130.646 121.58 132.037L124.835 135.292L121.58 138.556C120.18 139.947 119.41 141.802 119.41 143.78C119.41 145.757 120.18 147.612 121.58 149.012C122.971 150.412 124.835 151.182 126.813 151.182C128.781 151.182 130.645 150.412 132.036 149.012L135.291 145.757L138.555 149.012C139.946 150.412 141.801 151.182 143.779 151.182C145.756 151.182 147.611 150.412 149.011 149.012C150.411 147.612 151.181 145.757 151.181 143.78C151.181 141.802 150.411 139.947 149.011 138.556L145.756 135.292L149.011 132.037C150.411 130.646 151.181 128.782 151.181 126.814ZM145.529 128.555L140.524 133.551C139.561 134.514 139.561 136.08 140.524 137.042L145.529 142.039C145.993 142.502 146.246 143.124 146.246 143.78C146.246 144.445 145.993 145.057 145.529 145.53C145.056 145.994 144.435 146.247 143.779 146.247C143.123 146.247 142.501 145.994 142.038 145.53L137.041 140.525C136.56 140.044 135.93 139.807 135.291 139.807C134.661 139.807 134.031 140.044 133.55 140.525L128.554 145.53C128.09 145.994 127.469 146.247 126.813 146.247C126.148 146.247 125.535 145.994 125.063 145.53C124.599 145.057 124.345 144.445 124.345 143.78C124.345 143.124 124.599 142.502 125.063 142.039L130.068 137.042C131.03 136.08 131.03 134.514 130.068 133.551L125.063 128.555C124.599 128.082 124.345 127.47 124.345 126.814C124.345 126.149 124.599 125.536 125.063 125.064C125.535 124.6 126.148 124.346 126.813 124.346C127.469 124.346 128.09 124.6 128.554 125.064L133.55 130.069C134.014 130.532 134.644 130.786 135.291 130.786C135.948 130.786 136.578 130.532 137.041 130.069L142.038 125.064C142.501 124.6 143.123 124.346 143.779 124.346C144.435 124.346 145.056 124.6 145.529 125.064C145.993 125.536 146.246 126.149 146.246 126.814C146.246 127.47 145.993 128.082 145.529 128.555Z" fill="#25A46D"></path> <path d="M95.515 89.7573C94.5 88.8473 92.9512 88.9348 92.0412 89.9411C91.1312 90.9473 91.21 92.5048 92.2075 93.4236C92.2425 93.4586 95.9 96.8273 95.9 100.651C95.9 104.387 92.2337 107.8 88.2 107.8C87.1412 107.8 86.415 107.205 84.8662 105.857C81.9787 103.346 77.6125 99.5486 66.64 99.5486C65.275 99.5486 64.1725 100.66 64.1725 102.016C64.1725 103.381 65.275 104.484 66.64 104.484C71.2075 104.484 74.305 105.192 76.58 106.181C74.3225 107.004 71.0062 107.8 66.64 107.8C60.2875 107.8 55.3612 105.647 53.13 101.902C51.5725 99.2773 51.5812 96.0923 53.165 93.1786C56.3937 87.2373 65.5812 76.5711 73.9375 67.0423C82.3462 57.4523 99.995 38.5348 100.17 38.3423C101.097 37.3448 101.045 35.7873 100.047 34.8598C99.0587 33.9236 97.4925 33.9849 96.565 34.9736C96.39 35.1661 78.6975 54.1448 70.2275 63.7961C59.3337 76.2036 51.9575 85.0586 48.8337 90.8248C46.4012 95.3048 46.4187 100.266 48.895 104.422C52.0362 109.699 58.5025 112.726 66.64 112.726C74.0687 112.726 79.0125 110.714 81.4362 109.41C81.5062 109.471 81.5675 109.524 81.6375 109.585C83.4137 111.125 85.26 112.726 88.2 112.726C94.9287 112.726 100.835 107.082 100.835 100.651C100.835 94.6136 95.7337 89.9586 95.515 89.7573Z" fill="#25A46D"></path> <path d="M49.0511 80.15C49.9523 79.1175 49.8386 77.56 48.8148 76.6675C48.1061 76.0462 47.7123 75.1887 47.7123 74.2437C47.7123 73.2987 48.1061 72.4412 48.8148 71.82C50.5911 70.2712 51.6148 68.0312 51.6148 65.6687C51.6148 63.315 50.5911 61.075 48.8148 59.5262C47.7911 58.6337 46.2336 58.7387 45.3323 59.7712C44.4398 60.795 44.5536 62.3525 45.5773 63.245C46.2861 63.8662 46.6798 64.7325 46.6798 65.6687C46.6798 66.6137 46.2861 67.48 45.5773 68.1012C43.8011 69.65 42.7773 71.8812 42.7773 74.2437C42.7773 76.5975 43.8011 78.8375 45.5773 80.3862C46.0411 80.7887 46.6186 80.99 47.1961 80.99C47.8873 80.99 48.5698 80.71 49.0511 80.15Z" fill="#25A46D"></path> <path d="M38.017 58.4235C39.802 56.8747 40.817 54.6347 40.817 52.281C40.817 49.9185 39.802 47.6785 38.017 46.1297C36.9933 45.2372 35.4358 45.3422 34.5433 46.3747C33.6508 47.3985 33.7558 48.956 34.7795 49.8572C35.497 50.4697 35.882 51.336 35.882 52.281C35.882 53.226 35.497 54.0835 34.7795 54.7047C33.0033 56.2535 31.9883 58.4935 31.9883 60.8472C31.9883 63.201 33.0033 65.441 34.7795 66.9897C35.252 67.401 35.8295 67.6022 36.3983 67.6022C37.0895 67.6022 37.772 67.3135 38.262 66.7535C39.1545 65.721 39.0495 64.1635 38.017 63.271C37.3083 62.6497 36.9145 61.7922 36.9145 60.8472C36.9145 59.9022 37.3083 59.0447 38.017 58.4235Z" fill="#25A46D"></path> <path d="M55.2219 46.1296C53.4456 47.6783 52.4219 49.9183 52.4219 52.2808C52.4219 54.6346 53.4456 56.8746 55.2219 58.4233C55.6856 58.8258 56.2631 59.0271 56.8406 59.0271C57.5319 59.0271 58.2144 58.7383 58.7044 58.1783C59.5969 57.1546 59.4919 55.5971 58.4594 54.7046C57.7506 54.0833 57.3569 53.2258 57.3569 52.2808C57.3569 51.3358 57.7506 50.4696 58.4594 49.8571C60.2356 48.3083 61.2594 46.0683 61.2594 43.7058C61.2594 41.3521 60.2356 39.1121 58.4594 37.5633C57.4356 36.6708 55.8781 36.7758 54.9856 37.8083C54.0844 38.8321 54.1981 40.3896 55.2219 41.2821C55.9306 41.9033 56.3244 42.7608 56.3244 43.7058C56.3244 44.6508 55.9306 45.5171 55.2219 46.1296Z" fill="#25A46D"></path> </svg> 