<?xml version="1.0" encoding="UTF-8"?> <svg xmlns="http://www.w3.org/2000/svg" width="168" height="168" viewBox="0 0 168 168" fill="none"> <path d="M143.427 135.467C167.909 103.119 139.236 36.6973 139.236 36.6973C139.236 36.6973 119.303 67.576 97.4369 76.2035C82.8244 81.961 44.5432 108.876 84.4519 146.667C84.8807 147.07 85.3269 147.472 85.7994 147.875C105.102 137.979 142.351 110.11 138.606 43.426C138.606 43.426 151.914 119.376 88.3632 149.922C100.386 158.786 121.561 164.351 143.427 135.467Z" fill="#80CC28"></path> <path d="M76.0622 82.5212C66.6384 57.8462 46.8109 30.6512 6.90219 8.51371C6.90219 8.51371 59.6034 30.1525 80.1484 79.73C83.3072 77.7437 86.2734 76.265 88.6359 75.3375C95.3909 72.6687 101.962 67.8737 107.825 62.5187C86.8947 16.975 0.0859375 3.27246 0.0859375 3.27246C0.0859375 3.27246 19.7909 45.5437 14.2522 74.795C10.7872 93.0737 13.2022 146.125 69.0359 138.827C47.4497 113.067 61.8347 93.0825 76.0622 82.5212Z" fill="#27963C"></path> </svg> 