<?xml version="1.0" encoding="UTF-8"?> <svg xmlns="http://www.w3.org/2000/svg" width="168" height="168" viewBox="0 0 168 168" fill="none"> <path d="M55.6587 0.192383H0.525C0.236251 0.192383 0 0.428632 0 0.708632V8.63613C0 8.91613 0.236251 9.14363 0.525 9.14363H55.6587C55.9475 9.14363 56.1838 8.91613 56.1838 8.63613V0.708632C56.1838 0.428632 55.9475 0.192383 55.6587 0.192383Z" fill="#25A46D"></path> <path d="M7.5 82.46V12.2412H48.6863V82.46H7.5Z" fill="#25A46D"></path> <path d="M49.1144 167.624H80.3431C85.8906 159.513 88.8656 149.931 88.8656 140.123V125.501C70.4906 121.004 57.5844 104.493 57.6894 85.5664H13.4669C13.1431 99.6889 20.8344 112.779 33.3469 119.359C48.6244 130.244 55.0206 149.818 49.1144 167.624Z" fill="#25A46D"></path> <path d="M138.96 167.623H84.0625C89.225 159.372 91.9637 149.843 91.9637 140.122V126.148C94.1425 126.507 96.365 126.682 98.605 126.682H124.409C126.631 126.682 128.854 126.507 131.059 126.148V140.122C131.059 149.843 133.789 159.372 138.96 167.623Z" fill="#25A46D"></path> <path d="M63.0859 74.1562V82.46H163.851C166.161 82.4425 168.016 80.57 167.981 78.2687C167.972 76.0025 166.135 74.165 163.851 74.1562H63.0859Z" fill="#25A46D"></path> <path d="M98.6056 123.585C77.7106 123.585 60.7969 106.654 60.7969 85.7677V85.5664H162.218V85.7677C162.218 106.654 145.287 123.585 124.409 123.585H98.6056Z" fill="#25A46D"></path> </svg> 