<?xml version="1.0" encoding="UTF-8"?> <svg xmlns="http://www.w3.org/2000/svg" width="168" height="168" viewBox="0 0 168 168" fill="none"> <path d="M96.7038 47.2503L79.335 64.4441L72.4225 57.6016C70.375 55.5803 67.0588 55.5803 65.02 57.6016C62.9725 59.6228 62.9725 62.9041 65.02 64.9341L75.6338 75.4341C76.6575 76.4491 77.9963 76.9566 79.335 76.9566C80.6738 76.9566 82.0125 76.4491 83.0363 75.4341L104.106 54.5828C106.145 52.5528 106.145 49.2803 104.106 47.2503C102.059 45.2291 98.7513 45.2291 96.7038 47.2503Z" fill="#25A46D"></path> <path d="M69.045 127.067C61.3625 128.38 53.5575 125.107 49.165 118.728L47.7913 116.733L29.4688 154.595L47.135 153.903L57.6613 167.956L78.1275 125.667L77.8913 125.562L69.045 127.067Z" fill="#25A46D"></path> <path d="M114.055 119.411L107.44 125.414C103.686 128.809 98.8389 130.594 93.9214 130.594C93.7377 130.594 93.5627 130.594 93.3789 130.585L111.465 167.956L121.991 153.904L139.649 154.595L121.974 118.072L114.055 119.411Z" fill="#25A46D"></path> <path d="M84.5595 100.406C62.7633 100.406 45.097 82.9148 45.097 61.346C45.097 39.7685 62.7633 22.2948 84.5595 22.2948C106.356 22.2948 124.022 39.7685 124.022 61.346C124.022 82.9148 106.356 100.406 84.5595 100.406ZM144.952 70.8835L141.4 60.0248L144.34 48.9823C145.468 44.7648 144.007 40.2935 140.595 37.5373L131.678 30.2923L128.117 19.4248C126.77 15.286 123.095 12.3023 118.72 11.8035L107.257 10.4823L98.3408 3.24604C94.937 0.489788 90.2121 -0.052712 86.257 1.86354L75.9058 6.88604L64.4345 5.57354C60.0683 5.07479 55.7983 7.13979 53.5233 10.8673L47.5558 20.641L37.1958 25.6723C33.2408 27.5798 30.7821 31.6135 30.9046 35.971L31.2196 47.381L25.2521 57.1548C22.9683 60.8823 23.1083 65.581 25.5846 69.1773L32.0858 78.6098L32.4008 90.0285C32.5233 94.386 35.2008 98.2623 39.2521 99.9686L49.8745 104.431L56.3758 113.864C58.8521 117.46 63.227 119.297 67.567 118.554L78.9333 116.62L89.5645 121.082C93.6158 122.78 98.297 121.984 101.543 119.044L110.048 111.335L121.423 109.401C125.763 108.657 129.263 105.481 130.392 101.272L133.332 90.2298L141.846 82.521C145.092 79.5723 146.3 75.031 144.952 70.8835Z" fill="#25A46D"></path> </svg> 