<?xml version="1.0" encoding="UTF-8"?> <svg xmlns="http://www.w3.org/2000/svg" width="124" height="123" viewBox="0 0 124 123" fill="none"> <g filter="url(#filter0_d)"> <circle cx="62" cy="56" r="45" fill="white"></circle> </g> <circle cx="62" cy="56" r="35" fill="#25A46D"></circle> <path d="M62.0243 34.0156C62.0243 34.0156 56.164 43.3453 52.2221 51.7825C52.1587 51.8984 52.1171 52.0341 52.1171 52.1784C52.1171 52.6072 52.4496 52.9572 52.8587 52.9572C53.1278 52.9572 53.3596 52.8041 53.4887 52.5809C53.4909 52.5809 53.4931 52.5809 53.4953 52.5831C53.5062 52.5591 53.515 52.5328 53.5259 52.5088C53.5325 52.4934 53.5412 52.4781 53.5456 52.4628C56.5075 45.5044 62.0243 36.7216 62.0243 36.7216C62.0243 36.7216 72.334 54.6678 72.334 58.8569C72.334 64.5816 67.7184 69.2212 62.0243 69.2212C56.3303 69.2212 51.7146 64.5816 51.7146 58.8569C51.7146 58.5747 51.7409 58.2663 51.789 57.9338C51.205 60.9066 50.9621 64.9075 52.874 67.7447C54.5015 70.1619 57.5246 72.9159 61.8078 72.9159C62.2562 72.9159 62.6215 73.2834 62.6215 73.7363C62.6215 74.1891 62.2562 74.5566 61.8078 74.5566C56.9493 74.5566 53.4712 71.5575 51.5221 68.6613C48.5275 64.2097 49.9931 57.7019 50.8878 54.7881C49.5906 57.9009 48.7178 60.6987 48.7178 62.5888C48.7178 69.9781 54.6743 75.9675 62.0243 75.9675C69.3743 75.9675 75.3309 69.9781 75.3309 62.5888C75.3309 57.1812 62.0243 34.0156 62.0243 34.0156ZM65.0693 74.6134C63.9887 74.6134 63.1115 73.7319 63.1115 72.6447C63.1115 71.5575 63.9887 70.6781 65.0693 70.6781C66.15 70.6781 67.025 71.5575 67.025 72.6447C67.025 73.7319 66.15 74.6134 65.0693 74.6134Z" fill="white"></path> <defs> <filter id="filter0_d" x="0.951067" y="0.300712" width="122.098" height="122.098" filterUnits="userSpaceOnUse" color-interpolation-filters="sRGB"> <feFlood flood-opacity="0" result="BackgroundImageFix"></feFlood> <feColorMatrix in="SourceAlpha" type="matrix" values="0 0 0 0 0 0 0 0 0 0 0 0 0 0 0 0 0 0 127 0" result="hardAlpha"></feColorMatrix> <feOffset dy="5.34964"></feOffset> <feGaussianBlur stdDeviation="8.02447"></feGaussianBlur> <feColorMatrix type="matrix" values="0 0 0 0 0 0 0 0 0 0 0 0 0 0 0 0 0 0 0.2 0"></feColorMatrix> <feBlend mode="normal" in2="BackgroundImageFix" result="effect1_dropShadow"></feBlend> <feBlend mode="normal" in="SourceGraphic" in2="effect1_dropShadow" result="shape"></feBlend> </filter> </defs> </svg> 