<?xml version="1.0" encoding="UTF-8"?> <svg xmlns="http://www.w3.org/2000/svg" width="124" height="123" viewBox="0 0 124 123" fill="none"> <g filter="url(#filter0_d)"> <circle cx="62" cy="56" r="45" fill="white"></circle> </g> <circle cx="62" cy="56" r="35" fill="#25A46D"></circle> <g clip-path="url(#clip0)"> <path d="M81.7703 75.6947C81.5428 74.5025 81.0725 73.1944 80.1362 72.1706C79.0162 70.9478 77.1918 70.11 74.2343 70.3419C73.9587 70.3637 73.7071 70.2128 73.589 69.9787C73.1909 69.3334 68.2099 61.6859 59.8274 68.0253C59.635 68.1719 59.3856 68.1959 59.1756 68.1128C58.6178 67.929 51.9021 65.8881 48.7346 72.0809L48.1462 71.7878L48.7368 72.0831C48.6253 72.3019 48.4065 72.4309 48.1746 72.4419C47.7415 72.4922 43.9221 73.015 42.6096 75.6947H81.7703ZM81.114 71.2956C82.4637 72.7722 82.9996 74.6797 83.1943 76.2394C83.2009 76.2765 83.2031 76.3115 83.2031 76.3487C83.2031 76.7119 82.9078 77.005 82.5425 77.005H41.6821C41.6253 77.0072 41.5662 77.0006 41.5093 76.9853C41.155 76.8978 40.9384 76.5412 41.0281 76.1912H41.0303C41.9971 72.3806 46.4246 71.394 47.7196 71.1862C51.1387 64.9475 57.7406 66.3497 59.3003 66.7828C67.9496 60.474 73.3921 67.3515 74.5275 69.0097C77.7365 68.8478 79.795 69.8562 81.114 71.2956Z" fill="white"></path> <path d="M67.1314 49.7159C79.1386 50.7374 80.4489 39.3056 80.5889 36.394C77.6467 36.5318 66.0989 37.829 67.1314 49.7159ZM81.2649 35.7246L81.9233 35.7224C81.9233 35.7706 82.2121 52.7084 66.5036 50.9715C66.1799 50.9606 65.9064 50.7177 65.8671 50.3896L66.5255 50.3152L65.8692 50.3874C64.1302 35.2849 80.1383 35.0684 81.2102 35.0706C81.2255 35.0706 81.243 35.0684 81.2605 35.0684C81.6258 35.0662 81.9233 35.3571 81.9255 35.7202L81.2649 35.7246Z" fill="white"></path> <path d="M61.459 54.0709C45.7505 55.8077 46.0393 38.8699 46.0393 38.8218L46.6999 38.8262L46.0371 38.8218C46.0393 38.4587 46.339 38.1677 46.7043 38.1699C46.7196 38.1699 46.7371 38.1699 46.7524 38.1721C47.8243 38.1699 63.8346 38.3843 62.0955 53.489L61.4371 53.4168L62.0955 53.4912C62.0584 53.8171 61.7827 54.0599 61.459 54.0709ZM47.3737 39.4934C47.5137 42.4049 48.824 53.839 60.8334 52.8174C61.8659 40.9284 50.3159 39.6312 47.3737 39.4934Z" fill="white"></path> <path d="M62.0301 53.1314C61.8704 52.8077 61.4745 52.6742 61.1486 52.8317C60.8204 52.9892 60.687 53.3808 60.8467 53.7045C60.8532 53.7198 63.7036 59.4183 63.5898 65.0773C63.5832 65.4361 63.872 65.7336 64.2373 65.7423C64.6004 65.7489 64.9023 65.4623 64.9089 65.1014C65.0292 59.1252 62.0389 53.1489 62.0301 53.1314Z" fill="white"></path> <path d="M67.0176 50.7512C67.2604 50.4821 67.2364 50.0709 66.9651 49.8302C66.6939 49.5896 66.2761 49.6137 66.0354 49.8806C66.0267 49.8893 63.2223 52.9343 62.8701 59.2649C62.8504 59.6259 63.1283 59.9343 63.4936 59.954C63.8567 59.9737 64.1695 59.6981 64.1892 59.3371C64.5151 53.4637 67.0089 50.7599 67.0176 50.7512Z" fill="white"></path> <path d="M81.7335 36.1878C81.9916 35.9319 81.9916 35.5162 81.7335 35.2603C81.4732 35.0044 81.0554 35.0044 80.7972 35.2603L66.0579 49.8531C65.7997 50.1091 65.7997 50.5225 66.0579 50.7784C66.316 51.0344 66.736 51.0344 66.9941 50.7784L81.7335 36.1878Z" fill="white"></path> <path d="M47.1417 38.339C46.8704 38.0984 46.4526 38.1203 46.2076 38.3872C45.9648 38.6562 45.9867 39.0697 46.2579 39.3125C46.2929 39.3431 58.5889 50.2718 60.8836 53.7718C61.0826 54.0759 61.4917 54.1612 61.7979 53.9643C62.102 53.7675 62.1895 53.365 61.9904 53.0609C59.5951 49.4078 47.1767 38.3718 47.1417 38.339Z" fill="white"></path> </g> <defs> <filter id="filter0_d" x="0.951067" y="0.300712" width="122.098" height="122.098" filterUnits="userSpaceOnUse" color-interpolation-filters="sRGB"> <feFlood flood-opacity="0" result="BackgroundImageFix"></feFlood> <feColorMatrix in="SourceAlpha" type="matrix" values="0 0 0 0 0 0 0 0 0 0 0 0 0 0 0 0 0 0 127 0" result="hardAlpha"></feColorMatrix> <feOffset dy="5.34964"></feOffset> <feGaussianBlur stdDeviation="8.02447"></feGaussianBlur> <feColorMatrix type="matrix" values="0 0 0 0 0 0 0 0 0 0 0 0 0 0 0 0 0 0 0.2 0"></feColorMatrix> <feBlend mode="normal" in2="BackgroundImageFix" result="effect1_dropShadow"></feBlend> <feBlend mode="normal" in="SourceGraphic" in2="effect1_dropShadow" result="shape"></feBlend> </filter> <clipPath id="clip0"> <rect width="42" height="42" fill="white" transform="translate(41 35)"></rect> </clipPath> </defs> </svg> 