<?xml version="1.0" encoding="UTF-8"?> <svg xmlns="http://www.w3.org/2000/svg" width="124" height="123" viewBox="0 0 124 123" fill="none"> <g filter="url(#filter0_d)"> <circle cx="62" cy="56" r="45" fill="white"></circle> </g> <circle cx="62" cy="56" r="35" fill="#25A46D"></circle> <path d="M56.3412 39.6263C55.3393 39.6723 54.5671 40.5166 54.6131 41.512C54.659 42.5095 55.51 43.2773 56.5118 43.2313H67.3968C68.0531 43.2423 68.659 42.901 68.9893 42.3366C69.3218 41.7766 69.3218 41.0788 68.9893 40.521C68.659 39.9566 68.0531 39.6154 67.3968 39.6263H56.5118C56.455 39.622 56.3981 39.622 56.3412 39.6263ZM61.869 44.1041C61.8318 44.1107 61.7925 44.1216 61.7575 44.1326C61.5825 44.172 61.4271 44.2595 61.3025 44.3863L58.7234 46.0751C58.3012 46.3573 58.1853 46.9238 58.4675 47.3438C58.7518 47.7616 59.3228 47.8776 59.7428 47.5976L61.0487 46.7248V64.8351L56.6256 61.4554C56.4265 61.2935 56.1728 61.2235 55.9168 61.2585C55.5559 61.311 55.2606 61.5713 55.1687 61.9191C55.0768 62.2713 55.2037 62.641 55.4925 62.8641L61.274 67.2851C61.3243 67.3376 61.3812 67.3879 61.4446 67.4273C61.4556 67.4273 61.4621 67.4273 61.4731 67.4273C61.5934 67.5038 61.729 67.5541 61.869 67.5673C61.88 67.5673 61.8865 67.5673 61.8975 67.5673C61.915 67.5673 61.9368 67.5673 61.9543 67.5673C61.9653 67.5673 61.9718 67.5673 61.9828 67.5673C62.1315 67.5629 62.2781 67.5257 62.4093 67.4557C62.4465 67.4295 62.4859 67.401 62.5209 67.3704L68.4184 62.8641C68.8121 62.5535 68.8712 61.9826 68.5606 61.5954C68.2478 61.206 67.6746 61.1448 67.2853 61.4554L62.8621 64.8351V46.7248L64.1659 47.5976C64.5881 47.8776 65.159 47.7616 65.4412 47.3438C65.7256 46.9238 65.6075 46.3573 65.1875 46.0751L62.6062 44.3863C62.5887 44.3645 62.5712 44.347 62.5493 44.3295L62.4662 44.2726C62.4465 44.2529 62.429 44.2354 62.4093 44.2179C62.2453 44.126 62.0571 44.0866 61.869 44.1041ZM54.6984 44.1326C54.1975 44.1326 53.7906 44.5373 53.7906 45.0338C53.7906 45.5304 54.1975 45.9351 54.6984 45.9351C55.1971 45.9351 55.604 45.5304 55.604 45.0338C55.604 44.5373 55.1971 44.1326 54.6984 44.1326ZM69.2125 44.1326C68.7115 44.1326 68.3046 44.5373 68.3046 45.0338C68.3046 45.5304 68.7115 45.9351 69.2125 45.9351C69.7112 45.9351 70.1181 45.5304 70.1181 45.0338C70.1181 44.5373 69.7112 44.1326 69.2125 44.1326ZM52.8828 47.7376C52.384 47.7376 51.9771 48.1423 51.9771 48.6388C51.9771 49.1354 52.384 49.5401 52.8828 49.5401C53.3837 49.5401 53.7906 49.1354 53.7906 48.6388C53.7906 48.1423 53.3837 47.7376 52.8828 47.7376ZM71.0259 47.7376C70.5271 47.7376 70.1181 48.1423 70.1181 48.6388C70.1181 49.1354 70.5271 49.5401 71.0259 49.5401C71.5268 49.5401 71.9337 49.1354 71.9337 48.6388C71.9337 48.1423 71.5268 47.7376 71.0259 47.7376ZM51.0693 51.3426C50.5706 51.3426 50.1615 51.7473 50.1615 52.2438C50.1615 52.7404 50.5706 53.1451 51.0693 53.1451C51.5681 53.1451 51.9771 52.7404 51.9771 52.2438C51.9771 51.7473 51.5681 51.3426 51.0693 51.3426ZM72.8415 51.3426C72.3406 51.3426 71.9337 51.7473 71.9337 52.2438C71.9337 52.7404 72.3406 53.1451 72.8415 53.1451C73.3403 53.1451 73.7471 52.7404 73.7471 52.2438C73.7471 51.7473 73.3403 51.3426 72.8415 51.3426ZM49.2559 54.9476C48.755 54.9476 48.3481 55.3545 48.3481 55.8488C48.3481 56.3454 48.755 56.7523 49.2559 56.7523C49.7546 56.7523 50.1615 56.3454 50.1615 55.8488C50.1615 55.3545 49.7546 54.9476 49.2559 54.9476ZM74.655 54.9476C74.154 54.9476 73.7471 55.3545 73.7471 55.8488C73.7471 56.3454 74.154 56.7523 74.655 56.7523C75.1537 56.7523 75.5628 56.3454 75.5628 55.8488C75.5628 55.3545 75.1537 54.9476 74.655 54.9476ZM47.4403 58.5548C46.9415 58.5548 46.5346 58.9595 46.5346 59.456C46.5346 59.9526 46.9415 60.3573 47.4403 60.3573C47.9412 60.3573 48.3481 59.9526 48.3481 59.456C48.3481 58.9595 47.9412 58.5548 47.4403 58.5548ZM76.4684 58.5548C75.9696 58.5548 75.5628 58.9595 75.5628 59.456C75.5628 59.9526 75.9696 60.3573 76.4684 60.3573C76.9693 60.3573 77.3762 59.9526 77.3762 59.456C77.3762 58.9595 76.9693 58.5548 76.4684 58.5548ZM45.6268 62.1598C45.1281 62.1598 44.719 62.5645 44.719 63.061C44.719 63.5576 45.1281 63.9623 45.6268 63.9623C46.1256 63.9623 46.5346 63.5576 46.5346 63.061C46.5346 62.5645 46.1256 62.1598 45.6268 62.1598ZM78.284 62.1598C77.7831 62.1598 77.3762 62.5645 77.3762 63.061C77.3762 63.5576 77.7831 63.9623 78.284 63.9623C78.7828 63.9623 79.1896 63.5576 79.1896 63.061C79.1896 62.5645 78.7828 62.1598 78.284 62.1598ZM43.8134 65.7648C43.3125 65.7648 42.9056 66.1695 42.9056 66.666C42.9056 67.1626 43.3125 67.5673 43.8134 67.5673C44.3121 67.5673 44.719 67.1626 44.719 66.666C44.719 66.1695 44.3121 65.7648 43.8134 65.7648ZM80.0975 65.7648C79.5987 65.7648 79.1896 66.1695 79.1896 66.666C79.1896 67.1626 79.5987 67.5673 80.0975 67.5673C80.5962 67.5673 81.0053 67.1626 81.0053 66.666C81.0053 66.1695 80.5962 65.7648 80.0975 65.7648ZM42.735 68.4685C41.7331 68.5145 40.9609 69.3588 41.0068 70.3563C41.0528 71.3516 41.9015 72.1194 42.9056 72.0735H81.0053C81.6593 72.0844 82.2653 71.7432 82.5956 71.1788C82.9281 70.6188 82.9281 69.9232 82.5956 69.3632C82.2653 68.7988 81.6593 68.4576 81.0053 68.4685H42.9056C42.8487 68.4641 42.7918 68.4641 42.735 68.4685Z" fill="white"></path> <defs> <filter id="filter0_d" x="0.951067" y="0.300712" width="122.098" height="122.098" filterUnits="userSpaceOnUse" color-interpolation-filters="sRGB"> <feFlood flood-opacity="0" result="BackgroundImageFix"></feFlood> <feColorMatrix in="SourceAlpha" type="matrix" values="0 0 0 0 0 0 0 0 0 0 0 0 0 0 0 0 0 0 127 0" result="hardAlpha"></feColorMatrix> <feOffset dy="5.34964"></feOffset> <feGaussianBlur stdDeviation="8.02447"></feGaussianBlur> <feColorMatrix type="matrix" values="0 0 0 0 0 0 0 0 0 0 0 0 0 0 0 0 0 0 0.2 0"></feColorMatrix> <feBlend mode="normal" in2="BackgroundImageFix" result="effect1_dropShadow"></feBlend> <feBlend mode="normal" in="SourceGraphic" in2="effect1_dropShadow" result="shape"></feBlend> </filter> </defs> </svg> 