<?xml version="1.0" encoding="UTF-8"?> <svg xmlns="http://www.w3.org/2000/svg" width="124" height="123" viewBox="0 0 124 123" fill="none"> <g filter="url(#filter0_d)"> <circle cx="62" cy="56" r="45" fill="white"></circle> </g> <circle cx="62" cy="56" r="35" fill="#25A46D"></circle> <path d="M58.6855 54.9824V56.0696C59.1449 56.0696 59.2105 55.9034 59.2105 55.5096C59.1777 55.1465 59.1121 54.9824 58.6855 54.9824Z" fill="white"></path> <path d="M62.0004 46.0352C56.5207 46.0352 52.0254 50.5086 52.0254 56.0342C52.0254 61.5292 56.4879 66.0355 62.0004 66.0355C67.4801 66.0355 71.9754 61.562 71.9754 56.0342C71.9754 50.5414 67.4801 46.0352 62.0004 46.0352ZM57.1441 57.4167C57.1441 58.5673 56.6848 58.6352 55.6348 58.6352H54.7816V54.3914H55.6676C56.4879 54.3914 57.177 54.3914 57.177 55.4108C57.177 55.8702 57.0457 56.2989 56.4879 56.3645V56.3973C57.0785 56.3973 57.1441 56.8567 57.1441 57.4167ZM59.3426 58.6352C59.2113 58.4689 59.2113 58.2064 59.2113 58.0423V57.1542C59.2113 56.8567 59.0473 56.6927 58.8504 56.6927H58.6863V58.6352H57.7348V54.3914H58.6863C59.6379 54.3914 60.1957 54.4898 60.1957 55.378C60.1957 55.903 59.966 56.2661 59.441 56.3317C59.9004 56.3317 60.1957 56.5286 60.1957 57.1214V58.0095C60.1957 58.1736 60.2285 58.4361 60.3598 58.6023H59.3426V58.6352ZM62.3285 58.6352L62.2301 57.5808H61.6723L61.5082 58.6352H60.6879L61.4098 54.3914H62.7551L63.3129 58.6352H62.3285ZM66.5285 58.6352H65.2816L64.5598 55.0805V58.6352H63.641V54.3914H65.1176L65.741 57.4823V54.3914H66.5285V58.6352ZM68.0707 58.6352H66.9223V54.3914H68.0707C69.1863 54.3914 69.5473 54.5555 69.5473 55.8373V57.3511C69.5473 58.1408 69.3176 58.6352 68.0707 58.6352Z" fill="white"></path> <path d="M68.0371 54.9824V58.0099C68.5293 58.0099 68.5621 57.813 68.5621 57.4171V55.6737C68.5621 55.1137 68.5293 54.9824 68.0371 54.9824Z" fill="white"></path> <path d="M61.9674 55.0488L61.7705 56.9585H62.1314L61.9674 55.0488Z" fill="white"></path> <path d="M55.6348 54.9824V56.1024C55.9301 56.0696 56.1598 56.2009 56.1598 55.5424C56.1598 55.1465 56.127 54.9824 55.6348 54.9824Z" fill="white"></path> <path d="M55.6348 56.7266V58.0434C56.1598 58.0763 56.1598 57.7809 56.1598 57.3522C56.1598 56.7266 56.0613 56.7266 55.6348 56.7266Z" fill="white"></path> <path d="M81.1625 51.9576C80.6703 51.2991 80.1781 50.6735 80.0141 50.1157C79.8172 49.5229 79.85 48.7004 79.85 47.8451C79.8828 46.4298 79.9156 44.8504 78.9969 43.5685C78.0781 42.2845 76.5359 41.8251 75.1906 41.3963C74.3703 41.1338 73.6156 40.9041 73.1234 40.5738C72.6641 40.2129 72.2047 39.5545 71.7125 38.8632C70.8922 37.6798 70.0063 36.3629 68.4641 35.8707C68.0703 35.7395 67.6766 35.6738 67.2172 35.6738C66.1672 35.6738 65.1828 36.0348 64.1984 36.3629C63.4109 36.6276 62.6234 36.9229 62 36.9229C61.3766 36.9229 60.5891 36.6604 59.7687 36.3629C58.7844 36.0348 57.8 35.6738 56.75 35.6738C56.2906 35.6738 55.8969 35.7395 55.5031 35.8707C53.9937 36.3629 53.075 37.7126 52.2547 38.8632C51.7625 39.5545 51.3359 40.2129 50.8438 40.5738C50.3516 40.937 49.5969 41.1666 48.7766 41.3963C47.4313 41.8251 45.8891 42.2845 44.9703 43.5685C44.0516 44.8504 44.0844 46.4298 44.1172 47.8451C44.15 48.7004 44.15 49.5229 43.9531 50.1157C43.7891 50.6735 43.2969 51.2991 42.8047 51.9576C41.9844 53.1082 41 54.3923 41 56.0351C41 57.6801 41.9844 58.9641 42.8375 60.1148C43.3297 60.7732 43.8219 61.3988 43.9859 61.9566C44.1828 62.5494 44.15 63.372 44.15 64.2273C44.1172 65.6426 44.0844 67.2548 45.0031 68.5038C45.9219 69.7879 47.4641 70.2473 48.8094 70.676C49.6297 70.9385 50.3844 71.1682 50.8766 71.4985C51.3359 71.8594 51.7953 72.5179 52.2875 73.2091C53.1078 74.3926 53.9938 75.7094 55.5359 76.2344C55.9297 76.3657 56.3562 76.4335 56.7828 76.4335C57.8328 76.4335 58.8172 76.0704 59.8016 75.7423C60.6219 75.4448 61.4094 75.1823 62.0328 75.1823C62.6562 75.1823 63.4438 75.4448 64.2641 75.7423C65.2484 76.0704 66.2328 76.4335 67.2828 76.4335C67.7422 76.4335 68.1359 76.3657 68.5297 76.2344C70.0391 75.7423 70.9578 74.3926 71.7781 73.242C72.2703 72.5507 72.6969 71.8923 73.1891 71.5313C73.6813 71.1682 74.4359 70.9385 75.2562 70.7088C76.6016 70.3129 78.1437 69.8207 79.0625 68.5366C79.9813 67.2548 79.9484 65.6754 79.9156 64.2601C79.8828 63.4048 79.8828 62.5823 80.0797 61.9916C80.2438 61.4316 80.7359 60.806 81.2281 60.1476C82.0156 58.9641 83 57.6801 83 56.0351C83 54.3923 82.0156 53.1082 81.1625 51.9576ZM72.5984 48.6676L73.6813 48.2716L73.9766 47.1538C74.0094 46.957 74.1734 46.9241 74.2719 47.0882L74.9938 48.0091L76.1422 47.9435C76.3391 47.9435 76.4047 48.042 76.3063 48.206L75.65 49.1598L76.0766 50.247C76.1422 50.411 76.0438 50.5423 75.8797 50.4766L74.7641 50.1485L73.8781 50.9032C73.7469 51.0366 73.6156 50.971 73.5828 50.772L73.55 49.6213L72.5656 48.9957C72.4016 48.8645 72.4016 48.7332 72.5984 48.6676ZM67.3156 44.227L68.0703 43.3388L67.7422 42.2188C67.6766 42.022 67.8078 41.9563 67.9719 42.022L69.0547 42.4485L70.0063 41.7923C70.1703 41.6938 70.3016 41.7595 70.2687 41.9563L70.2031 43.107L71.1219 43.831C71.2859 43.9623 71.2531 44.0935 71.0562 44.1263L69.9406 44.4238L69.5469 45.5088C69.4813 45.6729 69.35 45.7057 69.2516 45.5416L68.6281 44.5551L67.4469 44.5223C67.25 44.5223 67.2172 44.391 67.3156 44.227ZM60.0312 40.8057L61.1797 40.6395L61.7047 39.5873C61.8031 39.4232 61.9344 39.4232 62 39.5873L62.525 40.6395L63.6734 40.8057C63.8703 40.8385 63.9031 40.9698 63.7719 41.101L62.9188 41.8907L63.1156 43.0413C63.1484 43.2382 63.05 43.306 62.8531 43.2382L61.8359 42.7132L60.8188 43.2382C60.6547 43.3388 60.5234 43.2382 60.5562 43.0413L60.7531 41.8907L59.9328 41.0682C59.8016 40.937 59.8344 40.8057 60.0312 40.8057ZM52.5172 43.7326L53.4359 43.0085L53.3703 41.8579C53.3703 41.661 53.4688 41.5932 53.6328 41.6938L54.5844 42.3501L55.6672 41.9235C55.8313 41.8579 55.9625 41.9563 55.8969 42.1204L55.5688 43.2382L56.3234 44.1263C56.4547 44.2926 56.3891 44.391 56.1922 44.4238L55.0437 44.4566L54.4203 45.4432C54.3219 45.6073 54.1906 45.6073 54.125 45.4104L53.7312 44.3254L52.6156 44.0279C52.4187 43.9623 52.3859 43.831 52.5172 43.7326ZM47.4313 47.7138L48.5797 47.7795L49.3016 46.8585C49.4328 46.6923 49.5641 46.7273 49.5969 46.9241L49.8922 48.042L50.975 48.4379C51.1391 48.5035 51.1719 48.6348 51.0078 48.7332L50.0234 49.3588L49.9906 50.5095C49.9906 50.7063 49.8594 50.772 49.6953 50.6407L48.8094 49.8838L47.6937 50.2141C47.4969 50.2798 47.4312 50.1485 47.4969 49.9823L47.9234 48.8973L47.2672 47.9435C47.1688 47.8123 47.2344 47.681 47.4313 47.7138ZM46.2828 58.0104L46.1188 56.8576L45.0687 56.3326C44.9047 56.2341 44.9047 56.1029 45.0687 56.0351L46.1188 55.5101L46.2828 54.3595C46.3156 54.1604 46.4469 54.1276 46.5781 54.2588L47.3984 55.0813L48.5469 54.8845C48.7437 54.8516 48.8094 54.9501 48.7438 55.147L48.2188 56.1685L48.7438 57.1879C48.8422 57.3519 48.7437 57.4832 48.5469 57.4504L47.3984 57.2535L46.5781 58.076C46.4469 58.2401 46.3156 58.1744 46.2828 58.0104ZM50.8766 63.9319L49.7937 64.3257L49.4984 65.4457C49.4656 65.6426 49.3016 65.6754 49.2031 65.5113L48.4812 64.5904L47.3328 64.656C47.1359 64.656 47.0703 64.5576 47.1687 64.3913L47.825 63.4376L47.3984 62.3526C47.3328 62.1885 47.4313 62.0573 47.5953 62.1229L48.7109 62.451L49.5969 61.6941C49.7609 61.5629 49.8594 61.6285 49.8922 61.8254L49.925 62.9782L50.9094 63.6016C51.0734 63.7023 51.0734 63.8663 50.8766 63.9319ZM56.1266 68.3398L55.3719 69.2279L55.7 70.3457C55.7656 70.5448 55.6344 70.6104 55.4703 70.5448L54.3875 70.116L53.4359 70.7744C53.2719 70.8729 53.1406 70.8073 53.1734 70.6104L53.2391 69.4576L52.3203 68.7335C52.1562 68.6023 52.1891 68.471 52.3859 68.4382L53.5016 68.1429L53.8953 67.0557C53.9609 66.8916 54.0922 66.8588 54.1906 67.0229L54.8141 68.0116L55.9625 68.0444C56.1922 68.0773 56.2578 68.1757 56.1266 68.3398ZM63.4438 71.7938L62.2953 71.9579L61.7703 73.0101C61.6719 73.1763 61.5406 73.1763 61.475 73.0101L60.95 71.9579L59.8016 71.7938C59.6047 71.761 59.5719 71.6298 59.7031 71.4985L60.5234 70.676L60.3266 69.5232C60.2938 69.3263 60.3922 69.2607 60.5891 69.3263L61.6063 69.8535L62.6234 69.3263C62.7875 69.2279 62.9188 69.3263 62.8859 69.5232L62.6891 70.676L63.5094 71.4985C63.6734 71.6298 63.6406 71.761 63.4438 71.7938ZM70.925 68.867L70.0063 69.5888L70.0719 70.7416C70.0719 70.9385 69.9734 71.0041 69.8094 70.9057L68.8578 70.2473L67.775 70.676C67.6109 70.7416 67.4797 70.6432 67.5453 70.4769L67.8734 69.3591L67.1187 68.471C66.9875 68.3398 67.0531 68.2085 67.25 68.1757L68.3984 68.1429L69.0219 67.1563C69.1203 66.9901 69.2516 67.0229 69.3172 67.1891L69.7109 68.2741L70.8266 68.5695C71.0562 68.6023 71.0891 68.7335 70.925 68.867ZM62 67.386C55.7328 67.386 50.6797 62.2869 50.6797 56.0351C50.6797 49.7854 55.7328 44.6863 62 44.6863C68.2672 44.6863 73.3203 49.7854 73.3203 56.0351C73.3203 62.3198 68.2672 67.386 62 67.386ZM76.0438 64.8857L74.8953 64.8201L74.1734 65.741C74.0422 65.9051 73.9109 65.8723 73.8781 65.6754L73.5828 64.5576L72.5 64.1616C72.3359 64.096 72.3031 63.9648 72.4672 63.8663L73.4516 63.2407L73.4844 62.0901C73.4844 61.891 73.6156 61.8254 73.7797 61.9566L74.6656 62.7135L75.7812 62.3854C75.9781 62.3198 76.0438 62.451 75.9781 62.6151L75.5516 63.7023L76.2078 64.656C76.3063 64.7873 76.2078 64.8857 76.0438 64.8857ZM78.4062 56.5623L77.3563 57.0895L77.1922 58.2401C77.1594 58.437 77.0281 58.4698 76.8969 58.3385L76.0766 57.516L74.9281 57.7129C74.7313 57.7479 74.6656 57.6473 74.7313 57.4504L75.2562 56.431L74.7313 55.4116C74.6328 55.2476 74.7313 55.1141 74.9281 55.147L76.0766 55.346L76.8969 54.5235C77.0281 54.3923 77.1594 54.4251 77.1922 54.622L77.3563 55.7726L78.4062 56.2998C78.5703 56.3326 78.5703 56.4638 78.4062 56.5623Z" fill="white"></path> <defs> <filter id="filter0_d" x="0.951067" y="0.300712" width="122.098" height="122.098" filterUnits="userSpaceOnUse" color-interpolation-filters="sRGB"> <feFlood flood-opacity="0" result="BackgroundImageFix"></feFlood> <feColorMatrix in="SourceAlpha" type="matrix" values="0 0 0 0 0 0 0 0 0 0 0 0 0 0 0 0 0 0 127 0" result="hardAlpha"></feColorMatrix> <feOffset dy="5.34964"></feOffset> <feGaussianBlur stdDeviation="8.02447"></feGaussianBlur> <feColorMatrix type="matrix" values="0 0 0 0 0 0 0 0 0 0 0 0 0 0 0 0 0 0 0.2 0"></feColorMatrix> <feBlend mode="normal" in2="BackgroundImageFix" result="effect1_dropShadow"></feBlend> <feBlend mode="normal" in="SourceGraphic" in2="effect1_dropShadow" result="shape"></feBlend> </filter> </defs> </svg> 