<?xml version="1.0" encoding="UTF-8"?> <svg xmlns="http://www.w3.org/2000/svg" width="124" height="123" viewBox="0 0 124 123" fill="none"> <g filter="url(#filter0_d)"> <circle cx="62" cy="56" r="45" fill="white"></circle> </g> <circle cx="62" cy="56" r="35" fill="#25A46D"></circle> <path d="M79.9289 42.153C79.0604 42.153 78.3954 41.7636 77.7501 41.3895C77.0414 40.9739 76.372 40.5823 75.3176 40.5823C74.9085 40.5823 74.4579 40.6436 73.9789 40.7661C73.5873 40.8645 73.1782 40.6698 73.0098 40.3002C72.8414 39.9305 72.9595 39.4952 73.292 39.2633C73.6267 39.0292 73.957 38.7908 74.2829 38.5545C76.2189 37.1589 78.0476 35.8398 79.9289 35.8398C81.622 35.8398 83.0001 37.2552 83.0001 38.9964C83.0001 40.7377 81.622 42.153 79.9289 42.153Z" fill="white"></path> <path d="M71.428 42.3937L70.4808 39.4383C70.3583 39.0555 69.9799 38.8083 69.5774 38.863C67.893 39.073 65.8696 39.364 64.1611 39.6199L66.1977 45.9658C67.8011 45.1587 69.6627 44.1918 71.0539 43.3737C71.393 43.1746 71.5483 42.7655 71.428 42.3937Z" fill="white"></path> <path d="M61.9697 49.4957C61.8363 49.4957 61.705 49.4651 61.5847 49.4017C61.3857 49.301 61.2369 49.1238 61.1691 48.9138L58.3275 40.0523C58.2597 39.8401 58.2772 39.6104 58.38 39.4113C58.4807 39.2145 58.6578 39.0635 58.87 38.9957L61.0947 38.3088C61.5344 38.1645 62.0069 38.4117 62.1491 38.8513L64.9929 47.7107C65.0607 47.9229 65.041 48.1548 64.9404 48.3517C64.8375 48.5507 64.6604 48.6995 64.4482 48.7695L62.2257 49.4542C62.1425 49.4826 62.055 49.4957 61.9697 49.4957Z" fill="white"></path> <path d="M82.58 71.9602H47.3C46.1428 71.9602 45.2 71.0196 45.2 69.8602C45.2 68.7009 46.1428 67.7602 47.3 67.7602H76.7C80.1738 67.7602 83 64.934 83 61.4602C83 57.9865 80.1738 55.1602 76.7 55.1602H49.82C49.19 55.1602 47.72 54.9524 47.72 53.0252C47.72 51.669 48.5862 51.0499 49.9841 50.4899C50.1678 50.4177 50.9947 50.1355 52.1388 49.7462C53.8581 49.1599 56.3081 48.3243 58.92 47.4012L57.6425 43.4199C55.0919 44.319 52.6266 45.1546 50.8919 45.743C49.8134 46.1062 48.9887 46.3862 48.5491 46.5437C44.9769 47.8212 43.52 49.7002 43.52 53.0252C43.52 56.5187 46.3463 59.3602 49.82 59.3602H76.7C77.8594 59.3602 78.8 60.3009 78.8 61.4602C78.8 62.6196 77.8594 63.5602 76.7 63.5602H47.3C43.8263 63.5602 41 66.3865 41 69.8602C41 73.3055 43.7803 76.1077 47.2125 76.1559C47.2213 76.1559 47.2278 76.1602 47.2344 76.1602H82.58C82.8119 76.1602 83 75.9721 83 75.7402V72.3802C83 72.1484 82.8119 71.9602 82.58 71.9602Z" fill="white"></path> <defs> <filter id="filter0_d" x="0.951067" y="0.300712" width="122.098" height="122.098" filterUnits="userSpaceOnUse" color-interpolation-filters="sRGB"> <feFlood flood-opacity="0" result="BackgroundImageFix"></feFlood> <feColorMatrix in="SourceAlpha" type="matrix" values="0 0 0 0 0 0 0 0 0 0 0 0 0 0 0 0 0 0 127 0" result="hardAlpha"></feColorMatrix> <feOffset dy="5.34964"></feOffset> <feGaussianBlur stdDeviation="8.02447"></feGaussianBlur> <feColorMatrix type="matrix" values="0 0 0 0 0 0 0 0 0 0 0 0 0 0 0 0 0 0 0.2 0"></feColorMatrix> <feBlend mode="normal" in2="BackgroundImageFix" result="effect1_dropShadow"></feBlend> <feBlend mode="normal" in="SourceGraphic" in2="effect1_dropShadow" result="shape"></feBlend> </filter> </defs> </svg> 