<?xml version="1.0" encoding="UTF-8"?> <svg xmlns="http://www.w3.org/2000/svg" width="124" height="123" viewBox="0 0 124 123" fill="none"> <g filter="url(#filter0_d)"> <circle cx="62" cy="56" r="45" fill="white"></circle> </g> <circle cx="62" cy="56" r="35" fill="#25A46D"></circle> <g clip-path="url(#clip0)"> <path d="M61.2355 65.9417C61.2438 65.9417 61.2563 65.9417 61.2688 65.9417H81.1855C81.4355 65.9417 81.6751 65.8271 81.8334 65.6312C81.9917 65.4333 82.0501 65.1792 81.9959 64.9333L78.6771 49.9958C78.5917 49.6146 78.2563 49.3438 77.8667 49.3438H64.5896C64.2001 49.3438 63.8646 49.6146 63.7792 49.9958L60.5084 64.7146C60.4438 64.8333 60.4063 64.9687 60.4063 65.1146C60.4042 65.5708 60.7771 65.9417 61.2355 65.9417ZM80.1501 64.2812H62.3001L65.2521 51.0042H77.1959L80.1501 64.2812Z" fill="white"></path> <path d="M69.6519 64.7383L72.1436 59.7591C72.2832 59.4799 72.5707 59.3008 72.8853 59.3008H79.5228C79.8811 59.3008 80.1978 59.5299 80.3124 59.8695L81.9707 64.8487C82.0561 65.1008 82.0124 65.3799 81.8561 65.5966C81.7019 65.8133 81.4519 65.9424 81.1853 65.9424H70.3957C70.1103 65.9424 69.8415 65.7924 69.6894 65.5487C69.5394 65.3008 69.5249 64.9966 69.6519 64.7383Z" fill="white"></path> <path d="M66.2487 65.9409C66.6341 65.9409 66.9799 65.668 67.0591 65.2743L68.7195 56.9743C68.8112 56.5264 68.5195 56.0889 68.0674 55.9993C67.6382 55.9076 67.182 56.1993 67.0903 56.6493L65.432 64.9493C65.3403 65.3993 65.632 65.8347 66.0841 65.9243C66.1382 65.9368 66.1924 65.9409 66.2487 65.9409Z" fill="white"></path> <path d="M66.2455 57.6428H69.5643C70.0226 57.6428 70.3955 57.2699 70.3955 56.8116C70.3955 56.3533 70.0226 55.9824 69.5643 55.9824H66.2455C65.7872 55.9824 65.4163 56.3533 65.4163 56.8116C65.4163 57.2699 65.7872 57.6428 66.2455 57.6428Z" fill="white"></path> <path d="M42.215 63.2184L49.863 37.2142C50.0525 36.5579 50.6421 36.11 51.3255 36.0996C51.3338 36.0996 51.3442 36.0996 51.3525 36.0996C52.0234 36.0996 52.615 36.5225 52.8275 37.1621L60.3963 59.8725C60.4525 60.0434 60.4525 60.2267 60.3963 60.3954L58.738 65.3746C58.6255 65.7121 58.3088 65.9413 57.9546 65.9434C57.9525 65.9434 57.9505 65.9434 57.9484 65.9434C57.5963 65.9434 57.2796 65.7184 57.163 65.3829L49.6859 43.6996L43.8067 63.6871C43.6775 64.1267 43.2171 64.3809 42.7775 64.2475C42.3359 64.1184 42.0859 63.6579 42.215 63.2184Z" fill="white"></path> <path d="M42.1667 64.0606C42.1751 63.8481 42.1813 63.644 42.1813 63.4523C42.1813 63.2044 42.2917 62.9669 42.4855 62.8106C42.6771 62.6544 42.9292 62.5919 43.173 62.6377L51.473 64.2981C51.8605 64.3752 52.1396 64.7148 52.1396 65.1106C52.1396 67.644 48.3251 69.2607 46.3313 69.2607C44.9459 69.2607 43.8876 68.8919 43.1834 68.1669C42.0751 67.0231 42.1271 65.3106 42.1667 64.0606Z" fill="white"></path> <path d="M57.9481 67.6016H77.8648C80.1523 67.6016 82.0127 69.4641 82.0127 71.7495C82.0127 74.037 80.1523 75.8995 77.8648 75.8995H57.9481C55.6585 75.8995 53.7981 74.037 53.7981 71.7495C53.7981 69.4641 55.6606 67.6016 57.9481 67.6016ZM77.8148 72.5807C78.2731 72.5807 78.6523 72.2078 78.6523 71.7495C78.6523 71.2932 78.2898 70.9203 77.8335 70.9203H77.8148C77.3585 70.9203 76.9835 71.2932 76.9835 71.7495C76.9835 72.2078 77.3585 72.5807 77.8148 72.5807ZM71.1752 72.5807C71.6335 72.5807 72.0127 72.2078 72.0127 71.7495C72.0127 71.2932 71.6502 70.9203 71.1939 70.9203H71.1752C70.7189 70.9203 70.346 71.2932 70.346 71.7495C70.346 72.2078 70.7189 72.5807 71.1752 72.5807ZM64.5356 72.5807C64.9939 72.5807 65.3752 72.2078 65.3752 71.7495C65.3752 71.2932 65.0106 70.9203 64.5544 70.9203H64.5356C64.0794 70.9203 63.7064 71.2932 63.7064 71.7495C63.7064 72.2078 64.0794 72.5807 64.5356 72.5807ZM57.8981 72.5807C58.3544 72.5807 58.7356 72.2078 58.7356 71.7495C58.7356 71.2932 58.371 70.9203 57.9148 70.9203H57.8981C57.4419 70.9203 57.0669 71.2932 57.0669 71.7495C57.0669 72.2078 57.4419 72.5807 57.8981 72.5807Z" fill="white"></path> </g> <defs> <filter id="filter0_d" x="0.951067" y="0.300712" width="122.098" height="122.098" filterUnits="userSpaceOnUse" color-interpolation-filters="sRGB"> <feFlood flood-opacity="0" result="BackgroundImageFix"></feFlood> <feColorMatrix in="SourceAlpha" type="matrix" values="0 0 0 0 0 0 0 0 0 0 0 0 0 0 0 0 0 0 127 0" result="hardAlpha"></feColorMatrix> <feOffset dy="5.34964"></feOffset> <feGaussianBlur stdDeviation="8.02447"></feGaussianBlur> <feColorMatrix type="matrix" values="0 0 0 0 0 0 0 0 0 0 0 0 0 0 0 0 0 0 0.2 0"></feColorMatrix> <feBlend mode="normal" in2="BackgroundImageFix" result="effect1_dropShadow"></feBlend> <feBlend mode="normal" in="SourceGraphic" in2="effect1_dropShadow" result="shape"></feBlend> </filter> <clipPath id="clip0"> <rect width="40" height="40" fill="white" transform="matrix(-1 0 0 1 82 36)"></rect> </clipPath> </defs> </svg> 