<?xml version="1.0" encoding="UTF-8"?> <svg xmlns="http://www.w3.org/2000/svg" width="150" height="57" viewBox="0 0 212 57" fill="none"> <path d="M189.368 12.226L200.111 9.43769L201.788 10.739L201.595 21.715C201.59 22.0425 201.711 22.3236 201.934 22.4964C202.157 22.6692 202.462 22.7195 202.782 22.6364C203.103 22.5532 203.413 22.3434 203.643 22.053C203.874 21.7626 204.007 21.4155 204.013 21.088L204.256 7.13522C204.259 6.97296 204.23 6.82037 204.172 6.6862C204.114 6.55203 204.028 6.43891 203.917 6.35332C203.807 6.26774 203.675 6.21138 203.53 6.18746C203.384 6.16353 203.227 6.17252 203.069 6.21391L189.411 9.75638C189.091 9.83953 188.781 10.0494 188.551 10.3397C188.32 10.6301 188.187 10.9772 188.181 11.3047C188.176 11.6322 188.297 11.9133 188.52 12.086C188.743 12.2588 189.048 12.3092 189.368 12.226Z" fill="#25A46D"></path> <path d="M1 8C35 61 142.6 80 203 8" stroke="#25A46D" stroke-width="2"></path> </svg>  