<?xml version="1.0" encoding="UTF-8"?> <svg xmlns="http://www.w3.org/2000/svg" width="150" height="57" viewBox="0 0 212 57" fill="none"> <path d="M189.368 44.4634L200.111 47.2518L201.788 45.9505L201.595 34.9744C201.59 34.6469 201.711 34.3659 201.934 34.1931C202.157 34.0203 202.462 33.97 202.782 34.0531C203.103 34.1363 203.413 34.3461 203.643 34.6365C203.874 34.9268 204.007 35.2739 204.013 35.6014L204.256 49.5542C204.259 49.7165 204.23 49.8691 204.172 50.0032C204.114 50.1374 204.028 50.2505 203.917 50.3361C203.807 50.4217 203.675 50.4781 203.53 50.502C203.384 50.5259 203.227 50.5169 203.069 50.4755L189.411 46.9331C189.091 46.8499 188.781 46.6401 188.551 46.3497C188.32 46.0593 188.187 45.7122 188.181 45.3847C188.176 45.0573 188.297 44.7762 188.52 44.6034C188.743 44.4306 189.048 44.3803 189.368 44.4634Z" fill="#25A46D"></path> <path d="M1 49C35 -4 142.6 -23 203 49" stroke="#25A46D" stroke-width="2"></path> </svg> 