<?xml version="1.0" encoding="UTF-8"?> <svg xmlns="http://www.w3.org/2000/svg" width="279" height="337" viewBox="0 0 279 337" fill="none"> <path d="M60.3064 66.4554V101.09C60.3064 104.414 63.0968 107.107 66.5342 107.107H180.345C183.785 107.107 186.573 104.414 186.573 101.09V66.4554H204.558V145.801C204.558 149.125 207.345 151.818 210.788 151.818C214.232 151.818 217.019 149.125 217.019 145.801V66.4554H225.693C230.499 66.4554 234.414 70.2317 234.414 74.8776V163.366C231.307 162.826 228.114 162.529 224.849 162.529C195.216 162.529 171.112 185.799 171.112 214.404C171.112 236.078 184.958 254.677 204.558 262.419V296.519H42.3245V66.4554H60.3064ZM72.768 50.6441H83.4368C86.8772 50.6441 89.6676 47.9505 89.6676 44.6295C89.6676 26.6528 104.82 12.0321 123.44 12.0321C142.062 12.0321 157.211 26.6528 157.211 44.6295C157.211 47.9505 160.005 50.6441 163.442 50.6441H174.111V95.0751H72.768V50.6441ZM266.122 214.404C266.122 236.367 247.608 254.242 224.849 254.242C202.091 254.242 183.577 236.367 183.577 214.404C183.577 192.432 202.091 174.558 224.849 174.558C247.608 174.558 266.122 192.432 266.122 214.404ZM36.0907 308.551H210.788C214.232 308.551 217.019 305.858 217.019 302.534V265.717C219.577 266.078 222.189 266.274 224.849 266.274C254.479 266.274 278.586 243.004 278.586 214.404C278.586 193.378 265.55 175.244 246.879 167.107V74.8776C246.879 63.5984 237.374 54.4233 225.693 54.4233H186.573V44.6295C186.573 41.3085 183.785 38.612 180.345 38.612H169.259C166.205 16.8415 146.821 0 123.44 0C100.058 0 80.6736 16.8415 77.6202 38.612H66.5342C63.0968 38.612 60.3064 41.3085 60.3064 44.6295V54.4233H21.1865C9.50791 54.4233 0 63.5984 0 74.8776V315.643C0 326.922 9.50791 336.094 21.1865 336.094H225.693C237.374 336.094 246.879 326.922 246.879 315.643V277.915C246.879 274.591 244.089 271.898 240.645 271.898C237.205 271.898 234.414 274.591 234.414 277.915V315.643C234.414 320.283 230.499 324.065 225.693 324.065H21.1865C16.3796 324.065 12.4646 320.283 12.4646 315.643V74.8776C12.4646 70.2317 16.3796 66.4554 21.1865 66.4554H29.86V302.534C29.86 305.858 32.6473 308.551 36.0907 308.551Z" fill="#087244" fill-opacity="0.5"></path> <path d="M123.439 31.2929C131.054 31.2929 137.255 37.2725 137.255 44.6295C137.255 51.9836 131.054 57.9661 123.439 57.9661C115.823 57.9661 109.623 51.9836 109.623 44.6295C109.623 37.2725 115.823 31.2929 123.439 31.2929ZM123.439 69.9982C137.929 69.9982 149.719 58.614 149.719 44.6295C149.719 30.6421 137.929 19.2607 123.439 19.2607C108.949 19.2607 97.1582 30.6421 97.1582 44.6295C97.1582 58.614 108.949 69.9982 123.439 69.9982Z" fill="#087244" fill-opacity="0.5"></path> <path d="M62.1469 142.784H184.734C188.177 142.784 190.965 140.093 190.965 136.769C190.965 133.448 188.177 130.758 184.734 130.758H62.1469C58.7035 130.758 55.9131 133.448 55.9131 136.769C55.9131 140.093 58.7035 142.784 62.1469 142.784Z" fill="#087244" fill-opacity="0.5"></path> <path d="M62.1469 168.981H184.734C188.177 168.981 190.965 166.288 190.965 162.964C190.965 159.643 188.177 156.952 184.734 156.952H62.1469C58.7035 156.952 55.9131 159.643 55.9131 162.964C55.9131 166.288 58.7035 168.981 62.1469 168.981Z" fill="#087244" fill-opacity="0.5"></path> <path d="M62.1469 195.175H158.435C161.879 195.175 164.666 192.484 164.666 189.16C164.666 185.836 161.879 183.146 158.435 183.146H62.1469C58.7035 183.146 55.9131 185.836 55.9131 189.16C55.9131 192.484 58.7035 195.175 62.1469 195.175Z" fill="#087244" fill-opacity="0.5"></path> <path d="M62.1469 221.373H153.52C156.963 221.373 159.75 218.679 159.75 215.355C159.75 212.034 156.963 209.341 153.52 209.341H62.1469C58.7035 209.341 55.9131 212.034 55.9131 215.355C55.9131 218.679 58.7035 221.373 62.1469 221.373Z" fill="#087244" fill-opacity="0.5"></path> <path d="M62.1469 247.567H158.435C161.879 247.567 164.666 244.877 164.666 241.553C164.666 238.229 161.879 235.538 158.435 235.538H62.1469C58.7035 235.538 55.9131 238.229 55.9131 241.553C55.9131 244.877 58.7035 247.567 62.1469 247.567Z" fill="#087244" fill-opacity="0.5"></path> <path d="M62.1469 273.768H184.734C188.177 273.768 190.965 271.075 190.965 267.751C190.965 264.43 188.177 261.736 184.734 261.736H62.1469C58.7035 261.736 55.9131 264.43 55.9131 267.751C55.9131 271.075 58.7035 273.768 62.1469 273.768Z" fill="#087244" fill-opacity="0.5"></path> <path d="M205.576 212.222C203.046 209.987 199.106 210.139 196.772 212.587C194.445 215.036 194.614 218.835 197.144 221.088L217.264 238.931C218.421 239.955 219.93 240.515 221.481 240.515C221.78 240.515 222.082 240.495 222.382 240.454C224.241 240.191 225.877 239.132 226.838 237.576L247.888 203.479C249.648 200.625 248.683 196.93 245.727 195.229C242.767 193.539 238.946 194.462 237.183 197.319L220.051 225.063L205.576 212.222Z" fill="#087244" fill-opacity="0.5"></path> </svg> 