<?xml version="1.0" encoding="UTF-8"?> <svg xmlns="http://www.w3.org/2000/svg" width="375" height="375" viewBox="0 0 375 375" fill="none"> <g filter="url(#filter0_d)"> <circle cx="187.498" cy="171.069" r="138.209" fill="white"></circle> </g> <circle cx="187.499" cy="171.069" r="107.496" fill="#25A46D"></circle> <g clip-path="url(#clip0)"> <path d="M248.03 129.752L237.172 150.761L219.678 141.721L230.536 120.711C221.654 119.078 212.357 123.341 207.983 131.805L204.819 137.928C200.781 145.741 202.092 154.911 207.41 161.23L174.074 220.218C170.095 227.244 172.697 236.023 179.853 239.721L180.259 239.931C187.415 243.629 196.082 240.674 199.515 233.358L228.351 172.044C236.587 172.731 244.82 168.493 248.858 160.68L252.019 154.563C256.393 146.099 254.493 136.05 248.03 129.752ZM214.936 167.433L218.935 169.5L194.699 216.394L190.7 214.328L214.936 167.433ZM184.421 231.381C181.072 229.65 179.769 225.528 181.5 222.18C183.236 218.819 187.352 217.513 190.695 219.241C194.037 220.968 195.346 225.078 193.61 228.438C191.885 231.79 187.763 233.108 184.421 231.381Z" fill="white"></path> <path d="M160.66 179.17L157.419 177.495L159.103 174.236L161.652 175.553C163.442 176.478 165.654 175.769 166.586 173.966L170.485 166.422C171.419 164.614 170.713 162.411 168.922 161.485L162.357 158.092L179.532 124.859L189.303 119.049L192.064 100.829L183.117 96.2048L169.857 109L170.758 120.325L153.586 153.552L147.027 150.162C145.23 149.234 143.021 149.937 142.09 151.74L138.191 159.284C137.256 161.092 137.957 163.307 139.753 164.236L142.302 165.553L140.618 168.812L137.383 167.14C135.586 166.211 133.374 166.921 132.446 168.718L115.163 202.159C114.231 203.962 114.935 206.171 116.731 207.099L140.009 219.129C141.799 220.054 144.008 219.351 144.94 217.548L162.223 184.107C163.151 182.31 162.45 180.095 160.66 179.17ZM126.756 203.492L123.133 201.62L137.038 174.714L140.661 176.586L126.756 203.492ZM140.776 210.738L137.147 208.862L151.052 181.956L154.681 183.832L140.776 210.738Z" fill="white"></path> </g> <defs> <filter id="filter0_d" x="-0.00188731" y="-0.000116524" width="375" height="375" filterUnits="userSpaceOnUse" color-interpolation-filters="sRGB"> <feFlood flood-opacity="0" result="BackgroundImageFix"></feFlood> <feColorMatrix in="SourceAlpha" type="matrix" values="0 0 0 0 0 0 0 0 0 0 0 0 0 0 0 0 0 0 127 0" result="hardAlpha"></feColorMatrix> <feOffset dy="4.10139"></feOffset> <feGaussianBlur stdDeviation="6.15209"></feGaussianBlur> <feColorMatrix type="matrix" values="0 0 0 0 0 0 0 0 0 0 0 0 0 0 0 0 0 0 0.2 0"></feColorMatrix> <feBlend mode="normal" in2="BackgroundImageFix" result="effect1_dropShadow"></feBlend> <feBlend mode="normal" in="SourceGraphic" in2="effect1_dropShadow" result="shape"></feBlend> </filter> <clipPath id="clip0"> <rect width="32.2" height="32.2" fill="white" transform="translate(159.812 84.1594) scale(4.00605) rotate(27.3302)"></rect> </clipPath> </defs> </svg> 