<?xml version="1.0" encoding="UTF-8"?> <svg xmlns="http://www.w3.org/2000/svg" width="375" height="375" viewBox="0 0 375 375" fill="none"> <g filter="url(#filter0_d)"> <circle cx="187.498" cy="171.069" r="138.209" fill="white"></circle> </g> <circle cx="187.499" cy="171.069" r="107.496" fill="#25A46D"></circle> <g clip-path="url(#clip0)"> <path d="M251.793 226.346H128.011C127.313 226.346 126.614 226.064 126.15 225.553C125.66 225.042 125.405 224.37 125.458 223.658L130.719 114.322C130.793 112.958 131.928 111.883 133.292 111.883H152.252C153.615 111.883 154.751 112.958 154.832 114.322L157.539 167.875L201.968 145.233C202.768 144.824 203.722 144.85 204.501 145.341C205.274 145.798 205.737 146.617 205.737 147.518V168.641L250.583 145.233C251.383 144.824 252.337 144.85 253.109 145.314C253.882 145.771 254.346 146.617 254.346 147.518V223.786C254.373 225.197 253.217 226.346 251.793 226.346ZM130.719 221.22H249.219V151.75L204.367 175.151C203.567 175.561 202.613 175.541 201.841 175.077C201.068 174.613 200.605 173.767 200.605 172.873V151.697L156.377 174.23C155.604 174.613 154.677 174.613 153.898 174.177C153.152 173.74 152.661 172.947 152.608 172.074L149.799 117.009H135.771L130.719 221.22ZM180.899 202.609H165.299C163.881 202.609 162.719 201.454 162.719 200.043V184.537C162.719 183.126 163.881 181.97 165.299 181.97H180.899C182.317 181.97 183.479 183.126 183.479 184.537V200.043C183.479 201.454 182.317 202.609 180.899 202.609ZM167.879 197.483H178.326V187.096H167.879V197.483ZM208.21 202.609H192.61C191.192 202.609 190.03 201.454 190.03 200.043V184.537C190.03 183.126 191.192 181.97 192.61 181.97H208.21C209.627 181.97 210.79 183.126 210.79 184.537V200.043C210.79 201.454 209.627 202.609 208.21 202.609ZM195.189 197.483H205.63V187.096H195.189V197.483ZM235.52 202.609H219.92C218.503 202.609 217.34 201.454 217.34 200.043V184.537C217.34 183.126 218.503 181.97 219.92 181.97H235.52C236.938 181.97 238.1 183.126 238.1 184.537V200.043C238.1 201.454 236.938 202.609 235.52 202.609ZM222.5 197.483H232.941V187.096H222.5V197.483Z" fill="white"></path> </g> <defs> <filter id="filter0_d" x="-0.00188731" y="-0.000116524" width="375" height="375" filterUnits="userSpaceOnUse" color-interpolation-filters="sRGB"> <feFlood flood-opacity="0" result="BackgroundImageFix"></feFlood> <feColorMatrix in="SourceAlpha" type="matrix" values="0 0 0 0 0 0 0 0 0 0 0 0 0 0 0 0 0 0 127 0" result="hardAlpha"></feColorMatrix> <feOffset dy="4.10139"></feOffset> <feGaussianBlur stdDeviation="6.15209"></feGaussianBlur> <feColorMatrix type="matrix" values="0 0 0 0 0 0 0 0 0 0 0 0 0 0 0 0 0 0 0.2 0"></feColorMatrix> <feBlend mode="normal" in2="BackgroundImageFix" result="effect1_dropShadow"></feBlend> <feBlend mode="normal" in="SourceGraphic" in2="effect1_dropShadow" result="shape"></feBlend> </filter> <clipPath id="clip0"> <rect width="32.2" height="32.2" fill="white" transform="translate(125.404 104.97) scale(4.00605)"></rect> </clipPath> </defs> </svg> 