<?xml version="1.0" encoding="UTF-8"?> <svg xmlns="http://www.w3.org/2000/svg" width="160" height="22" viewBox="0 0 625 88" fill="none"> <path fill-rule="evenodd" clip-rule="evenodd" d="M0 44C0 42.7036 0.679627 41.4602 1.88937 40.5435C3.09911 39.6268 4.73988 39.1118 6.45072 39.1118H602.421L561.821 8.35523C560.609 7.43735 559.929 6.19245 559.929 4.89438C559.929 3.59631 560.609 2.3514 561.821 1.43353C563.032 0.515655 564.675 3.05836e-08 566.388 0C568.101 -3.05836e-08 569.743 0.515655 570.955 1.43353L622.56 40.5392C623.161 40.9932 623.638 41.5326 623.963 42.1265C624.288 42.7204 624.456 43.357 624.456 44C624.456 44.643 624.288 45.2796 623.963 45.8735C623.638 46.4674 623.161 47.0068 622.56 47.4609L570.955 86.5665C569.743 87.4843 568.101 88 566.388 88C564.675 88 563.032 87.4843 561.821 86.5665C560.609 85.6486 559.929 84.4037 559.929 83.1056C559.929 81.8076 560.609 80.5627 561.821 79.6448L602.421 48.8882H6.45072C4.73988 48.8882 3.09911 48.3732 1.88937 47.4565C0.679627 46.5398 0 45.2964 0 44Z" fill="#25A46D"></path> </svg> 