<?xml version="1.0" encoding="UTF-8"?> <svg xmlns="http://www.w3.org/2000/svg" width="432" height="110" viewBox="0 0 432 110" fill="none"> <path d="M33.3226 81.7503C47.7233 81.7503 59.387 70.4041 59.8028 56.2863H54.1268C54.225 56.7021 54.3866 57.0889 54.3866 57.5335C54.3866 60.7497 51.7479 63.3539 48.4912 63.3539C45.454 63.3539 44.9344 60.0972 42.7229 58.1398C42.6825 58.0994 42.5266 58.0994 42.4804 58.1398C39.0159 61.2001 38.0862 66.2698 33.3226 66.2698C28.53 66.2698 27.6408 61.1539 24.1532 58.0532C24.084 57.9839 23.8357 57.9839 23.7606 58.0532C21.5376 60.0568 21.0468 63.3539 17.9749 63.3539C14.7241 63.3539 12.0853 60.7497 12.0853 57.5335C12.0853 57.0889 12.2412 56.7021 12.3336 56.2863H6.84814C7.26388 70.4041 18.9219 81.7503 33.3226 81.7503Z" fill="#F1A33B"></path> <path d="M59.3696 2.62723C59.3696 1.17792 58.1802 0 56.702 0H10.9939C9.52728 0 8.33203 1.17792 8.33203 2.62723V10.5724H59.3696V2.62723Z" fill="#25A46D"></path> <path d="M33.8077 22.1265C37.6937 22.1265 41.4988 22.6519 45.0384 23.6162V12.6107H22.6636V23.5296C26.2031 22.5653 30.0025 22.1265 33.8077 22.1265Z" fill="#25A46D"></path> <path d="M46.401 104.864H21.6068V95.1463H46.401V104.864ZM4.77521 57.2448C4.77521 41.2562 17.8652 28.3279 34.0501 28.3279C50.1426 28.3279 63.3192 41.2562 63.3192 57.2448C63.3192 63.3596 61.3791 68.9548 58.1052 73.5798C56.5115 75.8549 54.5656 77.9509 52.3599 79.6138C47.3133 83.7077 40.9502 86.0751 34.0501 86.0751C27.0634 86.0751 20.6945 83.7077 15.6537 79.6138C13.4422 77.9509 11.5887 75.8549 9.99504 73.5798C6.7211 68.9548 4.77521 63.3596 4.77521 57.2448ZM60.3282 84.9953C58.775 84.1292 57.0312 83.6499 55.0911 83.6499H54.9409C56.0842 82.7665 57.1813 81.8426 58.1918 80.8322C60.3109 78.6495 62.1759 76.2013 63.6714 73.5798C66.4199 68.7758 68.0078 63.1864 68.0078 57.2448C68.0078 41.6027 57.1293 28.3279 42.4515 24.748C39.7954 23.9627 36.966 23.6162 34.0501 23.6162C31.2208 23.6162 28.3914 23.9627 25.7411 24.6613C10.9651 28.3279 0 41.5218 0 57.2448C0 63.1864 1.59366 68.7758 4.33638 73.5798C5.83766 76.2937 7.78354 78.6495 9.90265 80.8322C10.9189 81.8484 12.016 82.7665 13.1535 83.6499H12.5126C10.6706 83.6499 8.92105 84.1292 7.37358 84.9953C3.97838 86.716 1.74379 90.2556 1.74379 94.3841V109.709H65.9522V94.3841C65.9522 90.3537 63.7176 86.8142 60.3282 84.9953Z" fill="#25A46D"></path> <path d="M100.3 25.1104C97.3045 25.1104 95.0144 26.2296 93.4304 28.468C91.8463 30.7063 91.0542 33.7712 91.0542 37.6625C91.0542 41.5883 91.7774 44.6359 93.2237 46.8054C94.7045 48.9405 97.0634 50.008 100.3 50.008C101.816 50.008 103.314 49.8359 104.794 49.4915C106.31 49.1471 107.945 48.665 109.702 48.0452V54.6053C108.083 55.2596 106.482 55.7417 104.898 56.0517C103.314 56.3616 101.54 56.5165 99.5773 56.5165C95.7893 56.5165 92.6555 55.7417 90.1761 54.1921C87.7311 52.608 85.9232 50.4041 84.7523 47.5803C83.5815 44.722 82.9961 41.3989 82.9961 37.6109C82.9961 33.8917 83.6676 30.603 85.0106 27.7448C86.3536 24.8866 88.2993 22.6482 90.8476 21.0297C93.4304 19.4111 96.5813 18.6019 100.3 18.6019C102.125 18.6019 103.951 18.8429 105.776 19.3251C107.635 19.7727 109.409 20.3926 111.096 21.1846L108.565 27.5382C107.188 26.8839 105.793 26.3157 104.381 25.8336C103.004 25.3515 101.643 25.1104 100.3 25.1104ZM128.541 27.2799C132.432 27.2799 135.514 28.3991 137.787 30.6375C140.06 32.8414 141.196 35.9924 141.196 40.0903V43.8095H123.014C123.083 45.979 123.72 47.6836 124.925 48.9233C126.165 50.163 127.87 50.7829 130.039 50.7829C131.864 50.7829 133.517 50.6107 134.998 50.2663C136.479 49.8875 138.011 49.3193 139.595 48.5617V54.502C138.218 55.1907 136.754 55.6901 135.205 56C133.689 56.3444 131.847 56.5165 129.677 56.5165C126.854 56.5165 124.357 56 122.187 54.9669C120.018 53.8994 118.313 52.2981 117.074 50.163C115.834 48.0279 115.214 45.3419 115.214 42.1048C115.214 38.7989 115.765 36.0612 116.867 33.8917C118.003 31.6878 119.57 30.0348 121.568 28.9329C123.565 27.8309 125.889 27.2799 128.541 27.2799ZM128.593 32.7553C127.112 32.7553 125.872 33.2374 124.874 34.2017C123.909 35.1659 123.341 36.6639 123.169 38.6956H133.965C133.93 36.9738 133.483 35.5619 132.622 34.4599C131.761 33.3235 130.418 32.7553 128.593 32.7553ZM173.058 27.7965V56H165.362V33.5818H155.134V56H147.437V27.7965H173.058ZM204.482 33.5818H195.236V56H187.539V33.5818H178.293V27.7965H204.482V33.5818ZM217.124 38.9539C217.124 39.5393 217.089 40.2625 217.021 41.1234C216.986 41.9843 216.934 42.8625 216.866 43.7578C216.831 44.6532 216.779 45.4452 216.711 46.1339C216.642 46.8227 216.59 47.3048 216.556 47.5803L229.573 27.7965H238.819V56H231.381V44.7392C231.381 43.8095 231.415 42.7936 231.484 41.6916C231.553 40.5552 231.622 39.5049 231.691 38.5407C231.794 37.542 231.863 36.7844 231.897 36.2678L218.932 56H209.686V27.7965H217.124V38.9539ZM265.355 27.7965H273.827L262.669 41.33L274.808 56H266.079L254.559 41.6916V56H246.863V27.7965H254.559V41.485L265.355 27.7965ZM276.158 52.8491C276.158 51.9881 276.486 51.2478 277.14 50.6279C277.794 50.008 278.517 49.6981 279.309 49.6981C280.033 49.6981 280.721 50.008 281.376 50.6279C282.03 51.2478 282.357 51.9881 282.357 52.8491C282.357 53.8133 282.03 54.5881 281.376 55.1735C280.721 55.7245 280.033 56 279.309 56C278.517 56 277.794 55.7245 277.14 55.1735C276.486 54.5881 276.158 53.8133 276.158 52.8491ZM299.089 56.5165C294.888 56.5165 291.634 55.3629 289.326 53.0557C287.054 50.714 285.917 47.0465 285.917 42.0532C285.917 38.6095 286.503 35.803 287.673 33.6335C288.844 31.4639 290.463 29.8626 292.529 28.8295C294.63 27.7965 297.04 27.2799 299.761 27.2799C301.689 27.2799 303.359 27.4693 304.771 27.8481C306.218 28.2269 307.474 28.6746 308.542 29.1911L306.269 35.1314C305.064 34.6493 303.928 34.2533 302.86 33.9434C301.827 33.6335 300.794 33.4785 299.761 33.4785C295.766 33.4785 293.769 36.3195 293.769 42.0015C293.769 44.8253 294.285 46.9087 295.318 48.2518C296.386 49.5948 297.867 50.2663 299.761 50.2663C301.379 50.2663 302.808 50.0597 304.048 49.6465C305.288 49.1988 306.493 48.5961 307.664 47.8385V54.3987C306.493 55.1563 305.253 55.6901 303.945 56C302.671 56.3444 301.052 56.5165 299.089 56.5165ZM325.726 27.2282C329.514 27.2282 332.407 28.0547 334.404 29.7077C336.436 31.3262 337.452 33.8229 337.452 37.1976V56H332.08L330.582 52.1775H330.375C329.17 53.6928 327.896 54.7947 326.553 55.4835C325.21 56.1722 323.367 56.5165 321.026 56.5165C318.512 56.5165 316.428 55.7934 314.775 54.347C313.122 52.8663 312.296 50.6107 312.296 47.5803C312.296 44.5843 313.346 42.3803 315.447 40.9684C317.547 39.5221 320.698 38.7301 324.9 38.5923L329.807 38.4374V37.1976C329.807 35.7169 329.411 34.6321 328.619 33.9434C327.861 33.2546 326.794 32.9103 325.416 32.9103C324.039 32.9103 322.696 33.1169 321.387 33.5301C320.079 33.9089 318.77 34.3911 317.461 34.9765L314.93 29.7593C316.445 28.9673 318.116 28.3474 319.941 27.8998C321.8 27.4521 323.729 27.2282 325.726 27.2282ZM326.811 43.0346C324.331 43.1035 322.61 43.5512 321.645 44.3777C320.681 45.2041 320.199 46.2889 320.199 47.6319C320.199 48.8028 320.543 49.6465 321.232 50.163C321.921 50.6451 322.816 50.8862 323.918 50.8862C325.571 50.8862 326.966 50.4041 328.102 49.4398C329.239 48.4412 329.807 47.0465 329.807 45.2558V42.9313L326.811 43.0346ZM372.345 15.6576C372.173 17.4483 371.674 19.0323 370.847 20.4098C370.021 21.7528 368.73 22.8032 366.973 23.5608C365.217 24.3184 362.858 24.6972 359.897 24.6972C356.866 24.6972 354.49 24.3356 352.768 23.6124C351.081 22.8548 349.876 21.8045 349.152 20.4615C348.429 19.1184 347.999 17.5171 347.861 15.6576H354.731C354.903 17.5516 355.385 18.8085 356.177 19.4284C356.97 20.0482 358.261 20.3582 360.052 20.3582C361.532 20.3582 362.738 20.031 363.667 19.3767C364.632 18.688 365.2 17.4483 365.372 15.6576H372.345ZM352.768 38.9539C352.768 39.5393 352.734 40.2625 352.665 41.1234C352.631 41.9843 352.579 42.8625 352.51 43.7578C352.476 44.6532 352.424 45.4452 352.355 46.1339C352.286 46.8227 352.234 47.3048 352.2 47.5803L365.217 27.7965H374.463V56H367.025V44.7392C367.025 43.8095 367.059 42.7936 367.128 41.6916C367.197 40.5552 367.266 39.5049 367.335 38.5407C367.438 37.542 367.507 36.7844 367.542 36.2678L354.576 56H345.33V27.7965H352.768V38.9539ZM405.855 33.5818H396.609V56H388.913V33.5818H379.666V27.7965H405.855V33.5818Z" fill="#25A46D"></path> <path d="M83.7461 83V69.1484H94.7071V83H91.7777V71.5928H86.6755V83H83.7461ZM103.866 72.2136C105.056 72.2136 106.019 72.6792 106.757 73.6104C107.494 74.5287 107.862 75.8867 107.862 77.6844C107.862 79.4821 107.481 80.8531 106.718 81.7972C105.955 82.7284 104.978 83.194 103.788 83.194C103.025 83.194 102.418 83.0582 101.965 82.7866C101.512 82.5021 101.144 82.1852 100.859 81.836H100.704C100.807 82.3792 100.859 82.8965 100.859 83.388V87.656H97.9686V72.4076H100.316L100.723 73.785H100.859C101.144 73.3582 101.525 72.9896 102.004 72.6792C102.482 72.3688 103.103 72.2136 103.866 72.2136ZM102.935 74.5222C102.185 74.5222 101.654 74.755 101.344 75.2206C101.047 75.6862 100.885 76.3975 100.859 77.3546V77.665C100.859 78.6867 101.008 79.4757 101.305 80.0318C101.616 80.575 102.172 80.8466 102.974 80.8466C103.633 80.8466 104.118 80.575 104.429 80.0318C104.752 79.4757 104.914 78.6803 104.914 77.6456C104.914 75.5633 104.254 74.5222 102.935 74.5222ZM119.867 77.6844C119.867 79.4433 119.402 80.8013 118.471 81.7584C117.552 82.7155 116.298 83.194 114.707 83.194C113.724 83.194 112.845 82.9806 112.069 82.5538C111.306 82.127 110.704 81.5062 110.264 80.6914C109.825 79.8637 109.605 78.8613 109.605 77.6844C109.605 75.9255 110.064 74.5739 110.982 73.6298C111.901 72.6857 113.162 72.2136 114.765 72.2136C115.761 72.2136 116.641 72.427 117.404 72.8538C118.167 73.2806 118.768 73.9014 119.208 74.7162C119.648 75.5181 119.867 76.5075 119.867 77.6844ZM112.554 77.6844C112.554 78.732 112.722 79.5274 113.058 80.0706C113.407 80.6009 113.97 80.866 114.746 80.866C115.509 80.866 116.059 80.6009 116.395 80.0706C116.744 79.5274 116.919 78.732 116.919 77.6844C116.919 76.6368 116.744 75.8543 116.395 75.337C116.059 74.8067 115.502 74.5416 114.726 74.5416C113.963 74.5416 113.407 74.8067 113.058 75.337C112.722 75.8543 112.554 76.6368 112.554 77.6844ZM131.782 72.4076V80.8854H133.334V86.8024H130.734V83H123.614V86.8024H121.015V80.8854H121.907C122.373 80.1741 122.767 79.3657 123.091 78.4604C123.414 77.5421 123.673 76.5657 123.867 75.531C124.061 74.4963 124.203 73.4552 124.293 72.4076H131.782ZM126.718 74.5804C126.563 75.7573 126.35 76.8761 126.078 77.9366C125.807 78.9842 125.425 79.9671 124.934 80.8854H128.891V74.5804H126.718ZM139.485 72.1942C140.907 72.1942 141.994 72.5046 142.744 73.1254C143.507 73.7333 143.889 74.6709 143.889 75.9384V83H141.871L141.308 81.5644H141.231C140.778 82.1335 140.3 82.5473 139.795 82.806C139.291 83.0647 138.599 83.194 137.719 83.194C136.775 83.194 135.993 82.9224 135.372 82.3792C134.751 81.8231 134.441 80.9759 134.441 79.8378C134.441 78.7126 134.835 77.8849 135.624 77.3546C136.413 76.8114 137.597 76.5139 139.174 76.4622L141.017 76.404V75.9384C141.017 75.3823 140.869 74.9749 140.571 74.7162C140.287 74.4575 139.886 74.3282 139.368 74.3282C138.851 74.3282 138.347 74.4058 137.855 74.561C137.364 74.7033 136.872 74.8843 136.381 75.1042L135.43 73.1448C135.999 72.8473 136.627 72.6145 137.312 72.4464C138.01 72.2783 138.735 72.1942 139.485 72.1942ZM139.892 78.1306C138.961 78.1565 138.314 78.3246 137.952 78.635C137.59 78.9454 137.409 79.3528 137.409 79.8572C137.409 80.2969 137.538 80.6138 137.797 80.8078C138.056 80.9889 138.392 81.0794 138.806 81.0794C139.427 81.0794 139.95 80.8983 140.377 80.5362C140.804 80.1611 141.017 79.6373 141.017 78.9648V78.0918L139.892 78.1306ZM161.902 72.4076L158.002 77.4904L162.27 83H159.186L155.151 77.6262V83H152.454V77.6262L148.419 83H145.334L149.602 77.4904L145.703 72.4076H148.69L152.454 77.5486V72.4076H155.151V77.5486L158.914 72.4076H161.902ZM168.13 72.1942C169.553 72.1942 170.639 72.5046 171.389 73.1254C172.152 73.7333 172.534 74.6709 172.534 75.9384V83H170.516L169.954 81.5644H169.876C169.423 82.1335 168.945 82.5473 168.44 82.806C167.936 83.0647 167.244 83.194 166.365 83.194C165.421 83.194 164.638 82.9224 164.017 82.3792C163.396 81.8231 163.086 80.9759 163.086 79.8378C163.086 78.7126 163.481 77.8849 164.269 77.3546C165.058 76.8114 166.242 76.5139 167.82 76.4622L169.663 76.404V75.9384C169.663 75.3823 169.514 74.9749 169.216 74.7162C168.932 74.4575 168.531 74.3282 168.014 74.3282C167.496 74.3282 166.992 74.4058 166.5 74.561C166.009 74.7033 165.518 74.8843 165.026 75.1042L164.075 73.1448C164.645 72.8473 165.272 72.6145 165.957 72.4464C166.656 72.2783 167.38 72.1942 168.13 72.1942ZM168.537 78.1306C167.606 78.1565 166.96 78.3246 166.597 78.635C166.235 78.9454 166.054 79.3528 166.054 79.8572C166.054 80.2969 166.184 80.6138 166.442 80.8078C166.701 80.9889 167.037 81.0794 167.451 81.0794C168.072 81.0794 168.596 80.8983 169.022 80.5362C169.449 80.1611 169.663 79.6373 169.663 78.9648V78.0918L168.537 78.1306ZM184.5 76.598C184.5 76.8179 184.487 77.0895 184.462 77.4128C184.449 77.7361 184.429 78.0659 184.403 78.4022C184.39 78.7385 184.371 79.0359 184.345 79.2946C184.319 79.5533 184.3 79.7343 184.287 79.8378L189.176 72.4076H192.648V83H189.855V78.7708C189.855 78.4216 189.868 78.0401 189.894 77.6262C189.919 77.1994 189.945 76.8049 189.971 76.4428C190.01 76.0677 190.036 75.7832 190.049 75.5892L185.179 83H181.707V72.4076H184.5V76.598ZM200.37 72.4076H203.533L205.531 78.3634C205.634 78.6479 205.712 78.9454 205.764 79.2558C205.815 79.5533 205.854 79.8701 205.88 80.2064H205.938C205.977 79.8701 206.029 79.5533 206.093 79.2558C206.171 78.9454 206.255 78.6479 206.346 78.3634L208.305 72.4076H211.409L206.928 84.358C206.527 85.4573 205.938 86.2786 205.162 86.8218C204.399 87.3779 203.513 87.656 202.504 87.656C202.181 87.656 201.896 87.6366 201.651 87.5978C201.418 87.5719 201.211 87.5396 201.03 87.5008V85.2116C201.172 85.2375 201.34 85.2633 201.534 85.2892C201.741 85.3151 201.955 85.328 202.175 85.328C202.782 85.328 203.261 85.1405 203.61 84.7654C203.972 84.4033 204.237 83.9635 204.406 83.4462L204.58 82.9224L200.37 72.4076ZM217.235 83.194C215.658 83.194 214.435 82.7607 213.569 81.8942C212.715 81.0147 212.288 79.6373 212.288 77.762C212.288 76.4687 212.508 75.4146 212.948 74.5998C213.388 73.785 213.996 73.1836 214.772 72.7956C215.561 72.4076 216.466 72.2136 217.488 72.2136C218.212 72.2136 218.839 72.2847 219.369 72.427C219.913 72.5693 220.385 72.7374 220.786 72.9314L219.932 75.1624C219.479 74.9813 219.053 74.8326 218.652 74.7162C218.264 74.5998 217.876 74.5416 217.488 74.5416C215.987 74.5416 215.237 75.6086 215.237 77.7426C215.237 78.8031 215.431 79.5856 215.819 80.09C216.22 80.5944 216.776 80.8466 217.488 80.8466C218.096 80.8466 218.632 80.769 219.098 80.6138C219.563 80.4457 220.016 80.2193 220.456 79.9348V82.3986C220.016 82.6831 219.551 82.8836 219.059 83C218.581 83.1293 217.973 83.194 217.235 83.194ZM231.663 74.5804H228.19V83H225.299V74.5804H221.827V72.4076H231.663V74.5804ZM237.963 72.1942C239.385 72.1942 240.472 72.5046 241.222 73.1254C241.985 73.7333 242.366 74.6709 242.366 75.9384V83H240.349L239.786 81.5644H239.709C239.256 82.1335 238.777 82.5473 238.273 82.806C237.769 83.0647 237.077 83.194 236.197 83.194C235.253 83.194 234.471 82.9224 233.85 82.3792C233.229 81.8231 232.919 80.9759 232.919 79.8378C232.919 78.7126 233.313 77.8849 234.102 77.3546C234.891 76.8114 236.074 76.5139 237.652 76.4622L239.495 76.404V75.9384C239.495 75.3823 239.346 74.9749 239.049 74.7162C238.764 74.4575 238.363 74.3282 237.846 74.3282C237.329 74.3282 236.824 74.4058 236.333 74.561C235.841 74.7033 235.35 74.8843 234.859 75.1042L233.908 73.1448C234.477 72.8473 235.104 72.6145 235.79 72.4464C236.488 72.2783 237.212 72.1942 237.963 72.1942ZM238.37 78.1306C237.439 78.1565 236.792 78.3246 236.43 78.635C236.068 78.9454 235.887 79.3528 235.887 79.8572C235.887 80.2969 236.016 80.6138 236.275 80.8078C236.533 80.9889 236.87 81.0794 237.284 81.0794C237.904 81.0794 238.428 80.8983 238.855 80.5362C239.282 80.1611 239.495 79.6373 239.495 78.9648V78.0918L238.37 78.1306ZM248.216 72.4076V76.4816H252.251V72.4076H255.142V83H252.251V78.635H248.216V83H245.325V72.4076H248.216ZM267.792 77.6844C267.792 79.4433 267.327 80.8013 266.396 81.7584C265.477 82.7155 264.223 83.194 262.632 83.194C261.649 83.194 260.77 82.9806 259.994 82.5538C259.231 82.127 258.629 81.5062 258.189 80.6914C257.75 79.8637 257.53 78.8613 257.53 77.6844C257.53 75.9255 257.989 74.5739 258.907 73.6298C259.825 72.6857 261.086 72.2136 262.69 72.2136C263.686 72.2136 264.566 72.427 265.329 72.8538C266.092 73.2806 266.693 73.9014 267.133 74.7162C267.573 75.5181 267.792 76.5075 267.792 77.6844ZM260.479 77.6844C260.479 78.732 260.647 79.5274 260.983 80.0706C261.332 80.6009 261.895 80.866 262.671 80.866C263.434 80.866 263.984 80.6009 264.32 80.0706C264.669 79.5274 264.844 78.732 264.844 77.6844C264.844 76.6368 264.669 75.8543 264.32 75.337C263.984 74.8067 263.427 74.5416 262.651 74.5416C261.888 74.5416 261.332 74.8067 260.983 75.337C260.647 75.8543 260.479 76.6368 260.479 77.6844ZM279.571 75.1818C279.571 75.7509 279.39 76.2359 279.028 76.6368C278.679 77.0377 278.155 77.2964 277.456 77.4128V77.4904C278.194 77.5809 278.782 77.8331 279.222 78.247C279.674 78.6609 279.901 79.1911 279.901 79.8378C279.901 80.4457 279.739 80.9889 279.416 81.4674C279.105 81.9459 278.607 82.321 277.922 82.5926C277.237 82.8642 276.338 83 275.225 83H270.181V72.4076H275.225C276.053 72.4076 276.79 72.4981 277.437 72.6792C278.097 72.8473 278.614 73.1319 278.989 73.5328C279.377 73.9337 279.571 74.4834 279.571 75.1818ZM276.642 75.4146C276.642 74.7679 276.131 74.4446 275.109 74.4446H273.072V76.5398H274.779C275.387 76.5398 275.846 76.4557 276.157 76.2876C276.48 76.1065 276.642 75.8155 276.642 75.4146ZM276.913 79.6826C276.913 79.2687 276.752 78.9713 276.428 78.7902C276.105 78.5962 275.62 78.4992 274.973 78.4992H273.072V81.0018H275.031C275.575 81.0018 276.021 80.9048 276.37 80.7108C276.732 80.5039 276.913 80.1611 276.913 79.6826ZM289.327 72.4076H292.509L288.319 77.4904L292.878 83H289.599L285.273 77.6262V83H282.382V72.4076H285.273V77.5486L289.327 72.4076ZM298.739 72.1942C300.162 72.1942 301.248 72.5046 301.998 73.1254C302.761 73.7333 303.143 74.6709 303.143 75.9384V83H301.125L300.563 81.5644H300.485C300.032 82.1335 299.554 82.5473 299.049 82.806C298.545 83.0647 297.853 83.194 296.974 83.194C296.03 83.194 295.247 82.9224 294.626 82.3792C294.005 81.8231 293.695 80.9759 293.695 79.8378C293.695 78.7126 294.09 77.8849 294.878 77.3546C295.667 76.8114 296.851 76.5139 298.429 76.4622L300.272 76.404V75.9384C300.272 75.3823 300.123 74.9749 299.825 74.7162C299.541 74.4575 299.14 74.3282 298.623 74.3282C298.105 74.3282 297.601 74.4058 297.109 74.561C296.618 74.7033 296.127 74.8843 295.635 75.1042L294.684 73.1448C295.254 72.8473 295.881 72.6145 296.566 72.4464C297.265 72.2783 297.989 72.1942 298.739 72.1942ZM299.146 78.1306C298.215 78.1565 297.569 78.3246 297.206 78.635C296.844 78.9454 296.663 79.3528 296.663 79.8572C296.663 80.2969 296.793 80.6138 297.051 80.8078C297.31 80.9889 297.646 81.0794 298.06 81.0794C298.681 81.0794 299.205 80.8983 299.631 80.5362C300.058 80.1611 300.272 79.6373 300.272 78.9648V78.0918L299.146 78.1306ZM316.623 83.194C315.045 83.194 313.822 82.7607 312.956 81.8942C312.102 81.0147 311.676 79.6373 311.676 77.762C311.676 76.4687 311.895 75.4146 312.335 74.5998C312.775 73.785 313.383 73.1836 314.159 72.7956C314.948 72.4076 315.853 72.2136 316.875 72.2136C317.599 72.2136 318.226 72.2847 318.757 72.427C319.3 72.5693 319.772 72.7374 320.173 72.9314L319.319 75.1624C318.866 74.9813 318.44 74.8326 318.039 74.7162C317.651 74.5998 317.263 74.5416 316.875 74.5416C315.374 74.5416 314.624 75.6086 314.624 77.7426C314.624 78.8031 314.818 79.5856 315.206 80.09C315.607 80.5944 316.163 80.8466 316.875 80.8466C317.483 80.8466 318.019 80.769 318.485 80.6138C318.951 80.4457 319.403 80.2193 319.843 79.9348V82.3986C319.403 82.6831 318.938 82.8836 318.446 83C317.968 83.1293 317.36 83.194 316.623 83.194ZM326.646 72.2136C328.107 72.2136 329.265 72.6339 330.119 73.4746C330.972 74.3023 331.399 75.4857 331.399 77.0248V78.4216H324.57C324.596 79.2364 324.835 79.8766 325.288 80.3422C325.754 80.8078 326.394 81.0406 327.209 81.0406C327.894 81.0406 328.515 80.9759 329.071 80.8466C329.627 80.7043 330.203 80.4909 330.798 80.2064V82.4374C330.28 82.6961 329.731 82.8836 329.149 83C328.58 83.1293 327.888 83.194 327.073 83.194C326.012 83.194 325.075 83 324.26 82.612C323.445 82.2111 322.805 81.6097 322.339 80.8078C321.874 80.0059 321.641 78.9971 321.641 77.7814C321.641 76.5398 321.848 75.5116 322.262 74.6968C322.688 73.8691 323.277 73.2483 324.027 72.8344C324.777 72.4205 325.65 72.2136 326.646 72.2136ZM326.665 74.27C326.109 74.27 325.644 74.4511 325.269 74.8132C324.906 75.1753 324.693 75.7379 324.628 76.501H328.683C328.67 75.8543 328.502 75.3241 328.179 74.9102C327.855 74.4834 327.351 74.27 326.665 74.27ZM343.365 72.4076V83H340.475V74.5804H336.633V83H333.743V72.4076H343.365ZM355.167 74.5804H351.695V83H348.804V74.5804H345.331V72.4076H355.167V74.5804ZM359.915 76.598C359.915 76.8179 359.902 77.0895 359.876 77.4128C359.863 77.7361 359.844 78.0659 359.818 78.4022C359.805 78.7385 359.786 79.0359 359.76 79.2946C359.734 79.5533 359.715 79.7343 359.702 79.8378L364.59 72.4076H368.063V83H365.269V78.7708C365.269 78.4216 365.282 78.0401 365.308 77.6262C365.334 77.1994 365.36 76.8049 365.386 76.4428C365.425 76.0677 365.45 75.7832 365.463 75.5892L360.594 83H357.121V72.4076H359.915V76.598ZM378.029 72.4076H381.211L377.02 77.4904L381.579 83H378.301L373.975 77.6262V83H371.084V72.4076H373.975V77.5486L378.029 72.4076ZM392.339 77.6844C392.339 79.4433 391.873 80.8013 390.942 81.7584C390.024 82.7155 388.769 83.194 387.179 83.194C386.196 83.194 385.316 82.9806 384.54 82.5538C383.777 82.127 383.176 81.5062 382.736 80.6914C382.296 79.8637 382.076 78.8613 382.076 77.6844C382.076 75.9255 382.535 74.5739 383.454 73.6298C384.372 72.6857 385.633 72.2136 387.237 72.2136C388.233 72.2136 389.112 72.427 389.875 72.8538C390.638 73.2806 391.24 73.9014 391.679 74.7162C392.119 75.5181 392.339 76.5075 392.339 77.6844ZM385.025 77.6844C385.025 78.732 385.193 79.5274 385.53 80.0706C385.879 80.6009 386.441 80.866 387.217 80.866C387.98 80.866 388.53 80.6009 388.866 80.0706C389.216 79.5274 389.39 78.732 389.39 77.6844C389.39 76.6368 389.216 75.8543 388.866 75.337C388.53 74.8067 387.974 74.5416 387.198 74.5416C386.435 74.5416 385.879 74.8067 385.53 75.337C385.193 75.8543 385.025 76.6368 385.025 77.6844ZM404.117 75.1818C404.117 75.7509 403.936 76.2359 403.574 76.6368C403.225 77.0377 402.701 77.2964 402.003 77.4128V77.4904C402.74 77.5809 403.328 77.8331 403.768 78.247C404.221 78.6609 404.447 79.1911 404.447 79.8378C404.447 80.4457 404.286 80.9889 403.962 81.4674C403.652 81.9459 403.154 82.321 402.468 82.5926C401.783 82.8642 400.884 83 399.772 83H394.728V72.4076H399.772C400.6 72.4076 401.337 72.4981 401.983 72.6792C402.643 72.8473 403.16 73.1319 403.535 73.5328C403.923 73.9337 404.117 74.4834 404.117 75.1818ZM401.188 75.4146C401.188 74.7679 400.677 74.4446 399.655 74.4446H397.618V76.5398H399.326C399.933 76.5398 400.393 76.4557 400.703 76.2876C401.026 76.1065 401.188 75.8155 401.188 75.4146ZM401.46 79.6826C401.46 79.2687 401.298 78.9713 400.975 78.7902C400.651 78.5962 400.166 78.4992 399.52 78.4992H397.618V81.0018H399.578C400.121 81.0018 400.567 80.9048 400.916 80.7108C401.279 80.5039 401.46 80.1611 401.46 79.6826Z" fill="white"></path> </svg> 